<?xml version="1.0" encoding="UTF-8" standalone="no"?>
<svg
   xmlns:dc="http://purl.org/dc/elements/1.1/"
   xmlns:cc="http://creativecommons.org/ns#"
   xmlns:rdf="http://www.w3.org/1999/02/22-rdf-syntax-ns#"
   xmlns:svg="http://www.w3.org/2000/svg"
   xmlns="http://www.w3.org/2000/svg"
   xmlns:sodipodi="http://sodipodi.sourceforge.net/DTD/sodipodi-0.dtd"
   xmlns:inkscape="http://www.inkscape.org/namespaces/inkscape"
   version="1.1"
   id="svg2"
   xml:space="preserve"
   width="666.66669"
   height="496.81332"
   viewBox="0 0 666.66669 496.81332"
   sodipodi:docname="4022486.eps"><metadata
     id="metadata8"><rdf:RDF><cc:Work
         rdf:about=""><dc:format>image/svg+xml</dc:format><dc:type
           rdf:resource="http://purl.org/dc/dcmitype/StillImage" /></cc:Work></rdf:RDF></metadata><defs
     id="defs6"><clipPath
       clipPathUnits="userSpaceOnUse"
       id="clipPath186"><path
         d="m 920.609,619.289 c 0,0 -14.089,42.711 -22.421,95.301 0.156,0.301 0.308,0.609 0.46,0.91 17.012,-10.359 29.235,-43.539 37.899,-88.238 -9.981,-5.153 -15.938,-7.973 -15.938,-7.973"
         id="path184" /></clipPath><clipPath
       clipPathUnits="userSpaceOnUse"
       id="clipPath260"><path
         d="m 2287.02,2647.48 c 0,-220.1 -178.42,-398.51 -398.51,-398.51 -220.09,0 -398.51,178.41 -398.51,398.51 0,220.08 160.11,475.8 380.2,475.8 220.08,0 416.82,-255.72 416.82,-475.8"
         id="path258" /></clipPath></defs><sodipodi:namedview
     pagecolor="#ffffff"
     bordercolor="#666666"
     borderopacity="1"
     objecttolerance="10"
     gridtolerance="10"
     guidetolerance="10"
     inkscape:pageopacity="0"
     inkscape:pageshadow="2"
     inkscape:window-width="640"
     inkscape:window-height="480"
     id="namedview4" /><g
     id="g10"
     inkscape:groupmode="layer"
     inkscape:label="ink_ext_XXXXXX"
     transform="matrix(1.3333333,0,0,-1.3333333,0,496.81333)"><g
       id="g12"
       transform="scale(0.1)"><path
         d="m 0,449.129 h 5000 v 2.5 H 0 Z"
         style="fill:#eeeeee;fill-opacity:1;fill-rule:nonzero;stroke:none"
         id="path14" /><path
         d="m 4167.79,290.672 h 331.22 v -2.5 h -331.22 v 2.5"
         style="fill:#eeeeee;fill-opacity:1;fill-rule:nonzero;stroke:none"
         id="path16" /><path
         d="m 3225.27,263.539 h 86.93 v -2.5 h -86.93 v 2.5"
         style="fill:#eeeeee;fill-opacity:1;fill-rule:nonzero;stroke:none"
         id="path18" /><path
         d="m 3965.86,383.539 h 191.92 v -2.5 h -191.92 v 2.5"
         style="fill:#eeeeee;fill-opacity:1;fill-rule:nonzero;stroke:none"
         id="path20" /><path
         d="m 524.59,364.23 h 431.934 v 2.5 H 524.59 Z"
         style="fill:#eeeeee;fill-opacity:1;fill-rule:nonzero;stroke:none"
         id="path22" /><path
         d="m 1045.56,364.23 h 63.332 v 2.5 h -63.332 z"
         style="fill:#eeeeee;fill-opacity:1;fill-rule:nonzero;stroke:none"
         id="path24" /><path
         d="m 1314.71,324.512 h 936.76 v -2.5 h -936.76 v 2.5"
         style="fill:#eeeeee;fill-opacity:1;fill-rule:nonzero;stroke:none"
         id="path26" /><path
         d="m 439.152,3723.59 c -30.101,0 -54.582,-24.48 -54.582,-54.57 V 954.699 c 0,-30.097 24.481,-54.578 54.582,-54.578 H 2370.14 c 30.08,0 54.57,24.481 54.57,54.578 V 3669.02 c 0,30.09 -24.49,54.57 -54.57,54.57 H 439.152 M 2370.14,897.621 H 439.152 c -31.476,0 -57.082,25.598 -57.082,57.078 V 3669.02 c 0,31.46 25.606,57.07 57.082,57.07 H 2370.14 c 31.46,0 57.07,-25.61 57.07,-57.07 V 954.699 c 0,-31.48 -25.61,-57.078 -57.07,-57.078"
         style="fill:#eeeeee;fill-opacity:1;fill-rule:nonzero;stroke:none"
         id="path28" /><path
         d="m 2602.12,3723.59 c -30.09,0 -54.57,-24.48 -54.57,-54.57 V 954.699 c 0,-30.097 24.48,-54.578 54.57,-54.578 h 1930.99 c 30.09,0 54.58,24.481 54.58,54.578 V 3669.02 c 0,30.09 -24.49,54.57 -54.58,54.57 H 2602.12 M 4533.11,897.621 H 2602.12 c -31.47,0 -57.07,25.598 -57.07,57.078 V 3669.02 c 0,31.46 25.6,57.07 57.07,57.07 h 1930.99 c 31.47,0 57.08,-25.61 57.08,-57.07 V 954.699 c 0,-31.48 -25.61,-57.078 -57.08,-57.078"
         style="fill:#eeeeee;fill-opacity:1;fill-rule:nonzero;stroke:none"
         id="path30" /><path
         d="m 2690.37,450.141 h 1762.89 v 2232.33 H 2690.37 Z"
         style="fill:#f4f4f4;fill-opacity:1;fill-rule:nonzero;stroke:none"
         id="path32" /><path
         d="m 2752.69,2123.76 h 1638.26 v 477.348 H 2752.69 Z"
         style="fill:#e3e3e2;fill-opacity:1;fill-rule:nonzero;stroke:none"
         id="path34" /><path
         d="m 4297.89,2123.76 h 93.06 v 400.07 h -93.06 v -400.07"
         style="fill:#eeeeee;fill-opacity:1;fill-rule:nonzero;stroke:none"
         id="path36" /><path
         d="m 3847.89,2123.76 h 93.0586 v 400.07 H 3847.89 Z"
         style="fill:#eeeeee;fill-opacity:1;fill-rule:nonzero;stroke:none"
         id="path38" /><path
         d="m 3269.08,2139.56 91.71,-15.8 67.95,394.26 -91.72,15.81 -67.94,-394.27"
         style="fill:#eeeeee;fill-opacity:1;fill-rule:nonzero;stroke:none"
         id="path40" /><path
         d="m 4182.57,2123.76 h 93.06 v 347.35 h -93.06 v -347.35"
         style="fill:#eeeeee;fill-opacity:1;fill-rule:nonzero;stroke:none"
         id="path42" /><path
         d="m 3968.66,2123.76 h 93.0703 v 347.348 H 3968.66 Z"
         style="fill:#eeeeee;fill-opacity:1;fill-rule:nonzero;stroke:none"
         id="path44" /><path
         d="m 3428.74,2123.76 h 93.0625 v 347.348 H 3428.74 Z"
         style="fill:#eeeeee;fill-opacity:1;fill-rule:nonzero;stroke:none"
         id="path46" /><path
         d="m 3650.31,2143.94 90.84,-20.18 75.34,339.08 -90.84,20.19 -75.34,-339.09"
         style="fill:#eeeeee;fill-opacity:1;fill-rule:nonzero;stroke:none"
         id="path48" /><path
         d="m 4102.1,2123.76 h 46.53 v 419.94 h -46.53 v -419.94"
         style="fill:#eeeeee;fill-opacity:1;fill-rule:nonzero;stroke:none"
         id="path50" /><path
         d="m 3548.55,2123.76 h 46.5313 v 419.938 H 3548.55 Z"
         style="fill:#eeeeee;fill-opacity:1;fill-rule:nonzero;stroke:none"
         id="path52" /><path
         d="m 2752.69,1570.82 h 1638.26 v 477.352 H 2752.69 Z"
         style="fill:#e3e3e2;fill-opacity:1;fill-rule:nonzero;stroke:none"
         id="path54" /><path
         d="m 2752.69,1570.82 h 93.0586 v 400.07 H 2752.69 Z"
         style="fill:#eeeeee;fill-opacity:1;fill-rule:nonzero;stroke:none"
         id="path56" /><path
         d="m 3202.68,1570.82 h 93.0703 v 400.07 H 3202.68 Z"
         style="fill:#eeeeee;fill-opacity:1;fill-rule:nonzero;stroke:none"
         id="path58" /><path
         d="m 3874.56,1586.62 -91.71,-15.8 -67.95,394.26 91.71,15.8 67.95,-394.26"
         style="fill:#eeeeee;fill-opacity:1;fill-rule:nonzero;stroke:none"
         id="path60" /><path
         d="m 2868,1570.82 h 93.0586 v 347.352 H 2868 Z"
         style="fill:#eeeeee;fill-opacity:1;fill-rule:nonzero;stroke:none"
         id="path62" /><path
         d="m 3081.91,1570.82 h 93.0586 v 347.352 H 3081.91 Z"
         style="fill:#eeeeee;fill-opacity:1;fill-rule:nonzero;stroke:none"
         id="path64" /><path
         d="m 3621.84,1570.82 h 93.0586 v 347.352 H 3621.84 Z"
         style="fill:#eeeeee;fill-opacity:1;fill-rule:nonzero;stroke:none"
         id="path66" /><path
         d="m 3493.33,1591.01 -90.85,-20.19 -75.34,339.08 90.85,20.19 75.34,-339.08"
         style="fill:#eeeeee;fill-opacity:1;fill-rule:nonzero;stroke:none"
         id="path68" /><path
         d="m 2995,1570.82 h 46.5391 v 419.941 H 2995 Z"
         style="fill:#eeeeee;fill-opacity:1;fill-rule:nonzero;stroke:none"
         id="path70" /><path
         d="m 3548.55,1570.82 h 46.5313 v 419.941 H 3548.55 Z"
         style="fill:#eeeeee;fill-opacity:1;fill-rule:nonzero;stroke:none"
         id="path72" /><path
         d="m 4297.89,1570.82 h 93.06 v 400.07 h -93.06 v -400.07"
         style="fill:#eeeeee;fill-opacity:1;fill-rule:nonzero;stroke:none"
         id="path74" /><path
         d="m 4182.57,1570.82 h 93.06 v 347.35 h -93.06 v -347.35"
         style="fill:#eeeeee;fill-opacity:1;fill-rule:nonzero;stroke:none"
         id="path76" /><path
         d="m 3968.66,1570.82 h 93.07 v 347.35 h -93.07 v -347.35"
         style="fill:#eeeeee;fill-opacity:1;fill-rule:nonzero;stroke:none"
         id="path78" /><path
         d="m 4102.1,1570.82 h 46.53 v 419.94 h -46.53 v -419.94"
         style="fill:#eeeeee;fill-opacity:1;fill-rule:nonzero;stroke:none"
         id="path80" /><path
         d="m 2752.69,1017.87 h 1638.26 v 477.359 H 2752.69 Z"
         style="fill:#e3e3e2;fill-opacity:1;fill-rule:nonzero;stroke:none"
         id="path82" /><path
         d="m 3357.58,1017.87 h 93.0586 v 400.078 H 3357.58 Z"
         style="fill:#eeeeee;fill-opacity:1;fill-rule:nonzero;stroke:none"
         id="path84" /><path
         d="m 2778.76,1033.68 91.72,-15.81 67.95,394.27 -91.72,15.81 -67.95,-394.27"
         style="fill:#eeeeee;fill-opacity:1;fill-rule:nonzero;stroke:none"
         id="path86" /><path
         d="m 3692.26,1017.87 h 93.0664 v 347.359 H 3692.26 Z"
         style="fill:#eeeeee;fill-opacity:1;fill-rule:nonzero;stroke:none"
         id="path88" /><path
         d="m 3478.35,1017.87 h 93.0703 v 347.359 H 3478.35 Z"
         style="fill:#eeeeee;fill-opacity:1;fill-rule:nonzero;stroke:none"
         id="path90" /><path
         d="m 2938.43,1017.87 h 93.0586 v 347.359 H 2938.43 Z"
         style="fill:#eeeeee;fill-opacity:1;fill-rule:nonzero;stroke:none"
         id="path92" /><path
         d="m 3159.99,1038.06 90.85,-20.19 75.35,339.09 -90.85,20.19 -75.35,-339.09"
         style="fill:#eeeeee;fill-opacity:1;fill-rule:nonzero;stroke:none"
         id="path94" /><path
         d="m 3611.79,1017.87 h 46.5313 v 419.938 H 3611.79 Z"
         style="fill:#eeeeee;fill-opacity:1;fill-rule:nonzero;stroke:none"
         id="path96" /><path
         d="m 3058.24,1017.87 h 46.5313 v 419.938 H 3058.24 Z"
         style="fill:#eeeeee;fill-opacity:1;fill-rule:nonzero;stroke:none"
         id="path98" /><path
         d="m 3849.44,1033.68 91.71,-15.81 67.95,394.27 -91.71,15.81 -67.95,-394.27"
         style="fill:#eeeeee;fill-opacity:1;fill-rule:nonzero;stroke:none"
         id="path100" /><path
         d="m 4009.1,1017.87 h 93.0586 v 347.359 H 4009.1 Z"
         style="fill:#eeeeee;fill-opacity:1;fill-rule:nonzero;stroke:none"
         id="path102" /><path
         d="m 4230.67,1038.06 90.85,-20.19 75.34,339.09 -90.84,20.19 -75.35,-339.09"
         style="fill:#eeeeee;fill-opacity:1;fill-rule:nonzero;stroke:none"
         id="path104" /><path
         d="m 4128.92,1017.87 h 46.53 v 419.94 h -46.53 v -419.94"
         style="fill:#eeeeee;fill-opacity:1;fill-rule:nonzero;stroke:none"
         id="path106" /><path
         d="m 4182.57,2682.47 v 33.13 h -53.65 c 0,0 53.65,140.71 19.71,314.55 0,0 0.77,-137.32 -52.34,-138.29 -81.09,-1.49 -87.19,138.29 -87.19,138.29 0,0 -19.54,-200.06 53.23,-314.55 h -55.62 v -33.13 h 175.86"
         style="fill:#e3e3e2;fill-opacity:1;fill-rule:nonzero;stroke:none"
         id="path108" /><path
         d="m 4031.74,2938.5 c 0,-25.85 20.96,-46.81 46.81,-46.81 25.85,0 46.81,20.96 46.81,46.81 0,25.86 -20.96,46.81 -46.81,46.81 -25.85,0 -46.81,-20.95 -46.81,-46.81"
         style="fill:#e3e3e2;fill-opacity:1;fill-rule:nonzero;stroke:none"
         id="path110" /><path
         d="m 3822.58,2682.47 v 19.33 l -56.7,26.38 28.35,27.69 -70.55,249.22 V 2849.5 c 0,0 9.72,0 9.72,-22.42 0,-22.43 -32.14,-17.15 -32.14,1.31 0,18.47 10.56,21.11 10.56,21.11 v 162.19 l -64.62,-246.6 29.01,-36.91 -58.02,-26.38 v -19.33 h 204.39"
         style="fill:#e3e3e2;fill-opacity:1;fill-rule:nonzero;stroke:none"
         id="path112" /><path
         d="m 3475.27,2682.47 v 15.37 l -52.25,11.87 v 228.79 l -44.83,62.64 -38.24,-49.05 v -105.01 l -19.78,27.47 -27.69,10.54 -19.78,-43.28 42.19,-132.1 -42.19,-11.87 v -15.37 h 202.57"
         style="fill:#e3e3e2;fill-opacity:1;fill-rule:nonzero;stroke:none"
         id="path114" /><path
         d="m 3128.44,2675.47 -64.1,325.67 H 2868 l 46.53,-184.66 -68.78,-134.01 282.69,-7"
         style="fill:#e3e3e2;fill-opacity:1;fill-rule:nonzero;stroke:none"
         id="path116" /><path
         d="m 533.051,3093.67 h 1304.38 v 67.0156 H 533.051 Z"
         style="fill:#e3e3e2;fill-opacity:1;fill-rule:nonzero;stroke:none"
         id="path118" /><path
         d="M 650.551,3160.68 H 593.09 v 247.05 h 57.461 v -247.05"
         style="fill:#eeeeee;fill-opacity:1;fill-rule:nonzero;stroke:none"
         id="path120" /><path
         d="m 928.422,3160.68 h -57.465 v 247.05 h 57.465 v -247.05"
         style="fill:#eeeeee;fill-opacity:1;fill-rule:nonzero;stroke:none"
         id="path122" /><path
         d="m 1285.83,3170.45 -56.64,-9.77 -41.95,243.46 56.63,9.76 41.96,-243.45"
         style="fill:#eeeeee;fill-opacity:1;fill-rule:nonzero;stroke:none"
         id="path124" /><path
         d="m 721.758,3160.68 h -57.465 v 214.49 h 57.465 v -214.49"
         style="fill:#eeeeee;fill-opacity:1;fill-rule:nonzero;stroke:none"
         id="path126" /><path
         d="m 853.844,3160.68 h -57.465 v 214.49 h 57.465 v -214.49"
         style="fill:#eeeeee;fill-opacity:1;fill-rule:nonzero;stroke:none"
         id="path128" /><path
         d="m 1187.24,3160.68 h -57.47 v 214.49 h 57.47 v -214.49"
         style="fill:#eeeeee;fill-opacity:1;fill-rule:nonzero;stroke:none"
         id="path130" /><path
         d="m 1050.42,3173.15 -56.096,-12.47 -46.519,209.38 56.095,12.47 46.52,-209.38"
         style="fill:#eeeeee;fill-opacity:1;fill-rule:nonzero;stroke:none"
         id="path132" /><path
         d="m 771.449,3160.68 h -28.734 v 259.31 h 28.734 v -259.31"
         style="fill:#eeeeee;fill-opacity:1;fill-rule:nonzero;stroke:none"
         id="path134" /><path
         d="m 1113.25,3160.68 h -28.73 v 259.31 h 28.73 v -259.31"
         style="fill:#eeeeee;fill-opacity:1;fill-rule:nonzero;stroke:none"
         id="path136" /><path
         d="m 1432.28,3162.9 h 279.988 v 193.309 H 1432.28 Z"
         style="fill:#eeeeee;fill-opacity:1;fill-rule:nonzero;stroke:none"
         id="path138" /><path
         d="m 533.051,2593.35 h 1304.38 v 67.0195 H 533.051 Z"
         style="fill:#e3e3e2;fill-opacity:1;fill-rule:nonzero;stroke:none"
         id="path140" /><path
         d="m 1719.93,2660.37 h 57.4688 v 247.039 H 1719.93 Z"
         style="fill:#eeeeee;fill-opacity:1;fill-rule:nonzero;stroke:none"
         id="path142" /><path
         d="m 1442.07,2660.37 h 57.4609 v 247.039 H 1442.07 Z"
         style="fill:#eeeeee;fill-opacity:1;fill-rule:nonzero;stroke:none"
         id="path144" /><path
         d="m 1084.66,2670.13 56.63,-9.76 41.96,243.45 -56.63,9.76 -41.96,-243.45"
         style="fill:#eeeeee;fill-opacity:1;fill-rule:nonzero;stroke:none"
         id="path146" /><path
         d="m 1648.73,2660.37 h 57.4609 v 214.484 H 1648.73 Z"
         style="fill:#eeeeee;fill-opacity:1;fill-rule:nonzero;stroke:none"
         id="path148" /><path
         d="m 1516.64,2660.37 h 57.4688 v 214.484 H 1516.64 Z"
         style="fill:#eeeeee;fill-opacity:1;fill-rule:nonzero;stroke:none"
         id="path150" /><path
         d="m 1183.25,2660.37 h 57.46 v 214.49 h -57.46 v -214.49"
         style="fill:#eeeeee;fill-opacity:1;fill-rule:nonzero;stroke:none"
         id="path152" /><path
         d="m 1320.06,2672.83 56.1,-12.46 46.52,209.38 -56.09,12.46 -46.53,-209.38"
         style="fill:#eeeeee;fill-opacity:1;fill-rule:nonzero;stroke:none"
         id="path154" /><path
         d="m 1599.04,2660.37 h 28.7305 v 259.305 H 1599.04 Z"
         style="fill:#eeeeee;fill-opacity:1;fill-rule:nonzero;stroke:none"
         id="path156" /><path
         d="m 1257.23,2660.37 h 28.74 v 259.31 h -28.74 v -259.31"
         style="fill:#eeeeee;fill-opacity:1;fill-rule:nonzero;stroke:none"
         id="path158" /><path
         d="m 658.215,2855.89 h 280 v -193.3 h -280 v 193.3"
         style="fill:#eeeeee;fill-opacity:1;fill-rule:nonzero;stroke:none"
         id="path160" /><path
         d="m 469.898,450.141 h 1093.89 v 1230.8 H 469.898 Z"
         style="fill:#e3e3e2;fill-opacity:1;fill-rule:nonzero;stroke:none"
         id="path162" /><path
         d="m 524.207,1433.71 h 985.273 v 198.18 H 524.207 Z"
         style="fill:#eeeeee;fill-opacity:1;fill-rule:nonzero;stroke:none"
         id="path164" /><path
         d="M 524.207,1184.02 H 1509.48 V 1382.2 H 524.207 Z"
         style="fill:#eeeeee;fill-opacity:1;fill-rule:nonzero;stroke:none"
         id="path166" /><path
         d="m 524.207,541.5 h 985.273 v 591 H 524.207 Z"
         style="fill:#eeeeee;fill-opacity:1;fill-rule:nonzero;stroke:none"
         id="path168" /><path
         d="m 1062.7,1597.98 h -91.716 c -24.39,0 -46.976,12.9 -59.379,33.91 h 210.475 c -12.4,-21.01 -34.98,-33.91 -59.38,-33.91"
         style="fill:#e3e3e2;fill-opacity:1;fill-rule:nonzero;stroke:none"
         id="path170" /><path
         d="m 1062.7,1348.6 h -91.716 c -24.39,0 -46.976,12.89 -59.379,33.9 h 210.475 c -12.4,-21.01 -34.98,-33.9 -59.38,-33.9"
         style="fill:#e3e3e2;fill-opacity:1;fill-rule:nonzero;stroke:none"
         id="path172" /><path
         d="m 1062.7,1098.36 h -91.716 c -24.39,0 -46.976,12.9 -59.379,33.91 h 210.475 c -12.4,-21.01 -34.98,-33.91 -59.38,-33.91"
         style="fill:#e3e3e2;fill-opacity:1;fill-rule:nonzero;stroke:none"
         id="path174" /><path
         d="M 4438.89,113.23 C 4438.89,50.6914 3570.83,0 2500,0 1429.18,0 561.113,50.6914 561.113,113.23 c 0,62.54 868.067,113.239 1938.887,113.239 1070.83,0 1938.89,-50.699 1938.89,-113.239"
         style="fill:#f8f8f9;fill-opacity:1;fill-rule:nonzero;stroke:none"
         id="path176" /><path
         d="m 1078.46,851.59 c -2.1,-14.699 37.77,-24.379 70.28,-29.801 -2.66,-26.687 -20.41,-53.66 -44.94,-78.859 -30.86,17.379 -74.9,40.359 -83.02,34.75 -8.86,-6.141 36.25,-35.301 64.45,-52.45 -19.84,-17.601 -42.18,-34.011 -63.89,-48.39 -13.83,12.93 -30.027,24.262 -39.668,18.121 -10.008,-6.359 -7.301,-26.359 -2.363,-44.199 -33.567,-19.563 -58.7,-31.473 -58.7,-31.473 0,0 -14.089,42.711 -22.421,95.301 1.695,3.34 3.375,6.719 4.917,10.289 5.411,12.512 0.141,17.84 -8.792,19.59 -2.309,23.023 -2.973,46.691 -0.551,68.66 37.984,7.973 84.183,22.711 66.883,45.492 -10.434,13.738 -29.536,15.309 -49.415,11.859 2.778,4.579 5.856,8.899 9.379,12.782 69.141,76.187 117.371,0 117.371,0 40.18,33.488 96.62,24.429 108.82,-27.903 -22.57,5.782 -65.75,14.391 -68.34,-3.769"
         style="fill:#fd2155;fill-opacity:1;fill-rule:nonzero;stroke:none"
         id="path178" /><g
         id="g180"><g
           id="g182"
           clip-path="url(#clipPath186)"><path
             d="m 898.188,619.289 h 38.3594 v 96.2109 H 898.188 Z"
             style="fill:#fd2155;fill-opacity:1;fill-rule:nonzero;stroke:none"
             id="path188" /></g></g><path
         d="m 945.617,632.012 c -9.441,46.047 -23.082,81.09 -42.656,92.539 0.047,0.109 0.094,0.219 0.144,0.328 1.5,3.473 2.18,6.391 2.188,8.832 0.02,6.359 -4.523,9.488 -10.98,10.758 -1.301,12.953 -2.079,26.113 -2.083,39.051 0,10.062 0.469,20 1.532,29.609 32.347,6.781 70.648,18.48 70.625,35.883 -0.004,3.027 -1.176,6.23 -3.742,9.609 -7.454,9.82 -19.332,13.418 -32.754,13.418 -5.368,0 -10.981,-0.578 -16.661,-1.559 2.778,4.579 5.856,8.899 9.379,12.782 8.114,8.937 15.93,15.777 23.422,20.886 18.699,-25.468 28.938,-82.148 33.938,-150.976 -8.453,-25.043 -12.516,-64.863 -13.793,-111.051 -6.797,-3.789 -13.047,-7.18 -18.559,-10.109"
         style="fill:#fd2155;fill-opacity:1;fill-rule:nonzero;stroke:none"
         id="path190" /><path
         d="m 974.301,647.871 c 0.238,7.879 0.554,15.508 0.965,22.879 0.675,-6.418 2.203,-13.352 4.043,-19.988 -1.692,-0.981 -3.364,-1.953 -5.008,-2.891"
         style="fill:#fd2155;fill-opacity:1;fill-rule:nonzero;stroke:none"
         id="path192" /><path
         d="m 1021.34,676.84 c -5.06,4.719 -10.43,9.242 -15.68,12.762 3.91,29.609 9.09,57.207 15.88,81.23 0.43,-0.363 0.86,-0.754 1.28,-1.152 0.75,-0.871 1.61,-1.782 2.58,-2.739 11.24,-13.113 20.4,-39.832 27.33,-68.05 -10.38,-7.762 -20.96,-15.141 -31.39,-22.051"
         style="fill:#fd2155;fill-opacity:1;fill-rule:nonzero;stroke:none"
         id="path194" /><path
         d="m 976.426,687.988 c 0.918,11.352 2.09,21.852 3.554,31.321 0.383,-8.168 0.711,-16.457 0.981,-24.84 -2.09,-1.559 -3.563,-3.778 -4.535,-6.481"
         style="fill:#fd2155;fill-opacity:1;fill-rule:nonzero;stroke:none"
         id="path196" /><path
         d="m 996.418,694.719 c -1.965,0.812 -3.867,1.402 -5.684,1.711 -0.691,19.039 -1.683,37.672 -3.019,55.531 2.836,7.687 6.168,13.437 10.062,16.918 4.783,4.269 9.203,6.383 13.393,6.383 0.57,0 1.14,-0.043 1.7,-0.121 -6.98,-23.95 -12.36,-51.27 -16.452,-80.422"
         style="fill:#fd2155;fill-opacity:1;fill-rule:nonzero;stroke:none"
         id="path198" /><path
         d="m 1064.52,763.828 c -14.58,7.16 -28.04,12.871 -36.38,14.344 -1.16,1.027 -2.36,1.969 -3.57,2.789 12.01,38 28.56,65.449 51.14,74.93 2.22,0.929 4.41,1.687 6.57,2.269 -2.08,-1.64 -3.43,-3.789 -3.82,-6.57 -0.06,-0.371 -0.08,-0.738 -0.08,-1.11 0,-4.25 3.52,-8.058 9.3,-11.468 -22.45,-3.43 -41.48,-19.032 -47.98,-46.891 v 0 0 c 12.36,3.168 30.9,7.18 45.57,7.18 12.12,0 21.6,-2.742 22.77,-10.961 0.06,-0.371 0.08,-0.738 0.08,-1.11 0.01,-10.21 -20.33,-17.921 -43.6,-23.402"
         style="fill:#fd2155;fill-opacity:1;fill-rule:nonzero;stroke:none"
         id="path200" /><path
         d="m 986.16,770.582 c -5.699,61.797 -16.14,112.719 -33.851,138.609 10.617,5.68 20.48,7.938 29.461,7.938 34.78,0 56.21,-33.867 56.21,-33.867 15.76,13.136 34.02,19.718 51.13,19.718 26.52,0 50.28,-15.82 57.69,-47.621 -7.4,1.903 -17.03,4.102 -26.71,5.563 -1.65,1.078 -3.34,2.066 -5.06,2.969 -7.25,3.769 -14.74,5.648 -22.42,5.648 -6.79,0 -13.73,-1.469 -20.78,-4.43 -24.88,-10.449 -42.98,-39.918 -56,-80.32 -1.58,0.352 -3.16,0.52 -4.75,0.52 -6.59,0 -13.275,-2.989 -19.963,-8.969 -1.75,-1.559 -3.402,-3.488 -4.957,-5.758"
         style="fill:#fd2155;fill-opacity:1;fill-rule:nonzero;stroke:none"
         id="path202" /><path
         d="m 992.191,291.73 9.969,0.821 c -0.42,5.148 -40.933,515.25 73.55,563.34 12.29,5.168 23.65,4.879 34.69,-0.871 41.37,-21.508 61.19,-110.821 61.39,-111.731 l 9.77,2.133 c -0.84,3.859 -21.02,94.789 -66.53,118.469 -13.67,7.109 -28.2,7.519 -43.2,1.218 C 950.723,814.238 990.445,313.039 992.191,291.73"
         style="fill:#fd2155;fill-opacity:1;fill-rule:nonzero;stroke:none"
         id="path204" /><path
         d="m 977.766,302.781 c 2.031,22.949 48.754,562.68 -38.621,619.981 -20.954,13.73 -39.618,16.66 -55.493,8.629 -41.289,-20.821 -46.707,-109.102 -46.918,-112.84 l 9.981,-0.571 c 0.047,0.86 5.293,86.258 41.449,104.489 12.441,6.25 27.75,3.57 45.5,-8.071 82.416,-54.058 34.633,-605.168 34.141,-610.738 l 9.961,-0.879"
         style="fill:#fd2155;fill-opacity:1;fill-rule:nonzero;stroke:none"
         id="path206" /><path
         d="m 964.629,259.148 c 0.652,17.571 15.043,430.711 -64.524,466.883 -15.726,7.141 -31.652,7.27 -47.324,0.379 -54.597,-24.031 -88.312,-125.769 -89.726,-130.09 l 9.511,-3.109 c 0.329,1.019 33.739,101.828 84.25,124.051 13.129,5.758 25.95,5.668 39.149,-0.34 61.012,-27.731 63.039,-339.582 58.676,-457.402 l 9.988,-0.372"
         style="fill:#fd2155;fill-opacity:1;fill-rule:nonzero;stroke:none"
         id="path208" /><path
         d="m 984.879,278.051 9.93,1.129 c -14.016,122.961 -40.825,450.621 2.968,489.699 6.533,5.84 12.383,7.633 17.913,5.543 29.35,-11.262 47.22,-117.84 51.63,-157.953 l 9.94,1.09 c -1.69,15.382 -17.69,150.73 -57.98,166.191 -9.23,3.539 -18.69,1.059 -28.163,-7.41 -56.597,-50.508 -8.324,-480.031 -6.238,-498.289"
         style="fill:#fd2155;fill-opacity:1;fill-rule:nonzero;stroke:none"
         id="path210" /><path
         d="M 1151.75,511.141 H 792.48 l 30,-402.43 h 299.27 l 30,402.43"
         style="fill:#fd2155;fill-opacity:1;fill-rule:nonzero;stroke:none"
         id="path212" /><path
         d="M 1032.63,108.711 H 822.48 l -30,402.43 h 247.21 c 0.95,-1.2 1.9,-2.391 2.85,-3.563 l -9.91,-398.867"
         style="fill:#fd2155;fill-opacity:1;fill-rule:nonzero;stroke:none"
         id="path214" /><path
         d="m 1102.81,658.828 c 3.75,-9.789 31.65,-2.09 53.56,5.711 7.52,-17.367 5.81,-40.098 -0.68,-64.039 -24.99,0.148 -60.03,-0.781 -63.11,-7.031 -3.36,-6.821 34.45,-9.34 57.72,-10.25 -6.2,-17.649 -14.34,-35.438 -22.8,-51.739 -12.96,3.219 -26.84,4.661 -30.68,-2.429 -3.99,-7.36 4.53,-18.762 13.69,-28.063 -13.99,-23.578 -25.41,-39.539 -25.41,-39.539 0,0 -23.33,21.512 -46.5,51.082 -0.1,2.649 -0.22,5.301 -0.49,8.039 -0.96,9.571 -6.03,11.039 -12.14,9.071 -9.32,13.398 -17.85,27.769 -23.88,42.148 20.69,17.941 44.13,42.871 25.65,50.981 -11.15,4.91 -23.46,-0.688 -34.541,-9.622 0.141,3.774 0.563,7.5 1.399,11.102 16.522,70.68 72.392,40.23 72.392,40.23 13.3,34.442 51.21,48.2 76.68,20.11 -15.91,-4.168 -45.49,-13.668 -40.86,-25.762"
         style="fill:#fd2155;fill-opacity:1;fill-rule:nonzero;stroke:none"
         id="path216" /><path
         d="m 1085.1,461.449 c 0,0 -20.76,19.141 -42.56,46.129 -0.95,1.172 -1.9,2.363 -2.85,3.563 -0.36,0.461 -0.73,0.929 -1.09,1.39 -0.1,2.649 -0.22,5.301 -0.49,8.039 -0.72,7.219 -3.79,9.828 -7.87,9.828 -1.33,0 -2.77,-0.277 -4.27,-0.757 -9.32,13.398 -17.85,27.769 -23.88,42.148 15.4,13.352 32.32,30.57 32.35,41.852 0.01,3.879 -1.97,7.058 -6.7,9.129 -2.85,1.261 -5.78,1.832 -8.74,1.832 -8.63,0 -17.56,-4.801 -25.801,-11.454 0.141,3.774 0.563,7.5 1.399,11.102 8.872,37.969 29.102,46.762 45.932,46.762 14.49,0 26.46,-6.532 26.46,-6.532 2.89,7.489 6.94,14 11.78,19.309 1.29,-1.367 2.6,-2.75 3.93,-4.109 11.12,6.269 23.95,13.261 36.19,19.379 7.61,-1.36 15.11,-5.079 21.89,-11.508 -3.13,-2.199 -6.4,-4.442 -9.74,-6.672 -12.96,-4.277 -27.06,-10.59 -28.58,-18.16 -0.4,-0.25 -0.79,-0.489 -1.19,-0.731 v 0 0 c 0.36,-0.308 0.71,-0.617 1.06,-0.929 0.04,-0.739 0.19,-1.477 0.48,-2.231 0.97,-2.519 3.54,-3.879 7.2,-4.379 15.74,-13.25 32.7,-25.73 49.45,-37.039 -0.94,-5.531 -2.22,-11.191 -3.77,-16.91 -1.52,0.012 -3.07,0.012 -4.66,0.012 -24.47,0 -55.56,-1.172 -58.45,-7.043 -0.14,-0.297 -0.21,-0.578 -0.21,-0.86 0.07,-6.168 35.66,-8.519 57.93,-9.39 -4.95,-14.09 -11.14,-28.27 -17.74,-41.719 -1.67,-3.391 -3.36,-6.738 -5.06,-10.02 -6.17,1.532 -12.55,2.661 -17.95,2.661 -5.95,0 -10.72,-1.371 -12.73,-5.09 -0.69,-1.262 -1.01,-2.653 -1.01,-4.121 -0.03,-7.098 7.12,-16.239 14.7,-23.942 -13.99,-23.578 -25.41,-39.539 -25.41,-39.539"
         style="fill:#fd2155;fill-opacity:1;fill-rule:nonzero;stroke:none"
         id="path218" /><path
         d="m 836.055,611.051 c 11.332,-0.84 22.203,-3.442 32.832,-6.922 2.769,7.601 4.582,15.5 4.84,23.781 2.273,72.449 -49.59,41.899 -77,63.192 -13.664,10.617 -30.414,17.449 -45.852,14.378 2.313,-3.988 4.422,-8.121 6.195,-12.398 2.871,-6.953 -1.656,-14.172 -8.769,-15.504 -6.692,-1.25 -14.203,-0.668 -20.348,2.414 -1.922,0.969 -3.523,2.348 -5.23,3.617 -3.832,-6.461 -7.219,-14.379 -9.953,-24.23 -2.793,-10.07 -4.235,-20.508 -4.684,-30.988 4.078,-0.911 8.125,-2 12.113,-3.422 6.235,-2.207 9.563,-12.168 4.539,-17.219 -4.41,-4.43 -9.461,-7.941 -14.953,-10.488 1.793,-11.942 5.117,-23.25 9.121,-33.973 1.231,-0.18 2.465,-0.32 3.692,-0.559 2.636,-0.511 5.234,-1.199 7.816,-1.929 1.484,-0.43 2.949,-0.93 4.34,-1.59 3.59,-1.699 6.207,-4.77 6.777,-8.789 0.559,-3.942 -1.086,-8.043 -4.265,-10.461 -1.692,-1.289 -3.551,-2.301 -5.395,-3.32 8.262,-13.071 18.027,-23.43 28.699,-28.95 0,0 13.223,5.77 30.528,16.129 -2.168,2.899 -4.332,5.801 -6.34,8.801 -2.379,3.52 -3.434,7.149 -3.078,11.379 0.343,4.09 2.82,7.648 5.871,10.219 2.941,2.472 7.637,3.551 11.379,3.082 3.664,-0.481 8.105,-2.731 10.226,-5.871 2.403,-3.578 5.047,-6.981 7.672,-10.379 13.235,9.98 26.41,22.031 36.801,35.73 l -1.106,0.321 c -6.695,1.75 -13.523,2.878 -20.421,3.398 -8.606,0.629 -13.973,9.301 -13.297,17.242 0.722,8.617 9.226,13.899 17.25,13.309"
         style="fill:#fd2155;fill-opacity:1;fill-rule:nonzero;stroke:none"
         id="path220" /><path
         d="m 760.57,507.691 c -10.672,5.52 -20.437,15.879 -28.699,28.95 1.844,1.019 3.703,2.031 5.395,3.32 2.781,2.121 4.39,5.519 4.375,8.98 -0.004,0.489 -0.039,0.989 -0.11,1.481 -0.57,4.019 -3.187,7.09 -6.777,8.789 -1.391,0.66 -2.856,1.16 -4.34,1.59 -2.582,0.73 -5.18,1.418 -7.816,1.929 -1.227,0.239 -2.461,0.379 -3.692,0.559 -4.004,10.723 -7.328,22.031 -9.121,33.973 5.492,2.547 10.543,6.058 14.953,10.488 1.707,1.719 2.45,4 2.442,6.359 -0.016,4.571 -2.864,9.403 -6.981,10.86 -3.988,1.422 -8.035,2.511 -12.113,3.422 0.449,10.48 1.891,20.918 4.684,30.988 2.734,9.851 6.121,17.769 9.953,24.23 1.707,-1.269 3.308,-2.648 5.23,-3.617 4.16,-2.094 8.949,-3.031 13.688,-3.031 2.257,0 4.5,0.219 6.66,0.617 5.64,1.051 9.656,5.813 9.644,11.203 -0.004,1.41 -0.281,2.86 -0.875,4.301 -1.773,4.277 -3.882,8.41 -6.195,12.398 2.52,0.5 5.074,0.739 7.645,0.739 13.179,0 26.773,-6.227 38.207,-15.117 26.82,-20.832 77.054,7.968 77.07,-58.661 0,-1.461 -0.024,-2.972 -0.07,-4.531 -0.258,-8.281 -2.071,-16.18 -4.84,-23.781 -10.629,3.48 -21.5,6.082 -32.832,6.922 -0.41,0.031 -0.825,0.039 -1.235,0.039 -7.64,0 -15.332,-5.168 -16.015,-13.348 -0.039,-0.433 -0.055,-0.871 -0.059,-1.301 -0.019,-7.57 5.219,-15.339 13.356,-15.941 6.898,-0.52 13.726,-1.648 20.421,-3.398 l 1.106,-0.321 c -10.234,-13.492 -23.164,-25.39 -36.195,-35.281 -0.204,-0.148 -0.407,-0.301 -0.606,-0.449 -2.625,3.398 -5.269,6.801 -7.672,10.379 -2.121,3.14 -6.562,5.39 -10.226,5.871 -0.578,0.07 -1.176,0.109 -1.789,0.109 -3.364,0 -7.102,-1.101 -9.59,-3.191 -3.051,-2.571 -5.528,-6.129 -5.871,-10.219 -0.043,-0.531 -0.067,-1.051 -0.067,-1.559 -0.004,-3.582 1.063,-6.742 3.145,-9.82 2.008,-3 4.172,-5.902 6.34,-8.801 -17.305,-10.359 -30.528,-16.129 -30.528,-16.129"
         style="fill:#fd2155;fill-opacity:1;fill-rule:nonzero;stroke:none"
         id="path222" /><path
         d="m 815.316,860.871 c -6.316,4.527 -13.168,7.938 -20.277,10.77 1.879,5.211 4.395,10.16 7.891,14.609 30.605,39.07 44.437,0.262 68.183,-0.578 11.84,-0.43 23.633,-4.192 30.403,-12.582 -2.969,-1.09 -5.891,-2.328 -8.703,-3.789 -4.555,-2.403 -5.348,-8.18 -2.192,-11.992 2.957,-3.598 7.16,-6.598 11.742,-7.668 1.434,-0.34 2.887,-0.309 4.336,-0.391 -0.824,-5.078 -2.519,-10.73 -5.406,-17.102 -2.949,-6.507 -6.777,-12.636 -11.137,-18.339 -2.539,1.32 -5.144,2.519 -7.867,3.523 -4.246,1.578 -10.363,-2.191 -9.941,-7.051 0.379,-4.261 1.484,-8.332 3.254,-12.082 -6.184,-5.469 -12.899,-9.969 -19.7,-13.828 l -2.187,1.309 c -1.61,0.89 -3.274,1.672 -4.953,2.429 -0.969,0.43 -1.961,0.813 -2.981,1.071 -2.633,0.672 -5.351,0.218 -7.41,-1.649 -2.031,-1.832 -2.961,-4.699 -2.355,-7.359 0.324,-1.422 0.855,-2.774 1.375,-4.113 -10.071,-3.25 -19.75,-4.399 -27.782,-2.618 0,0 -4.414,8.84 -8.953,21.868 2.407,0.57 4.817,1.152 7.192,1.839 2.797,0.813 4.941,2.262 6.605,4.633 1.617,2.289 1.879,5.258 1.406,7.949 -0.457,2.59 -2.453,5.211 -4.629,6.61 -2.132,1.359 -5.453,2.121 -7.949,1.402 -2.828,-0.82 -5.707,-1.441 -8.582,-2.082 -2.574,11.039 -4.207,23.149 -3.648,34.922 l 0.719,-0.32 c 4.285,-2.024 8.371,-4.422 12.218,-7.18 4.801,-3.441 11.422,-1.242 14.559,3.227 3.398,4.832 1.246,11.351 -3.231,14.562"
         style="fill:#fd2155;fill-opacity:1;fill-rule:nonzero;stroke:none"
         id="path224" /><path
         d="m 817.727,772.602 c -2.848,0 -5.567,0.269 -8.118,0.839 0,0 -4.414,8.84 -8.953,21.868 2.407,0.57 4.817,1.152 7.192,1.839 2.797,0.813 4.941,2.262 6.605,4.633 1.149,1.629 1.613,3.598 1.617,5.571 0,0.796 -0.074,1.597 -0.211,2.378 -0.457,2.59 -2.453,5.211 -4.629,6.61 -1.57,1 -3.781,1.672 -5.835,1.672 -0.739,0 -1.454,-0.082 -2.114,-0.27 -2.828,-0.82 -5.707,-1.441 -8.582,-2.082 -2.234,9.57 -3.758,19.949 -3.758,30.211 0,1.578 0.036,3.141 0.11,4.711 l 0.719,-0.32 c 4.285,-2.024 8.371,-4.422 12.218,-7.18 1.629,-1.172 3.469,-1.691 5.309,-1.691 3.586,0 7.176,1.961 9.25,4.918 1.152,1.64 1.668,3.48 1.668,5.312 0,3.57 -1.942,7.129 -4.899,9.25 -6.316,4.527 -13.168,7.938 -20.277,10.77 1.879,5.211 4.395,10.16 7.891,14.609 10.211,13.031 18.554,17.398 26.019,17.398 14.918,0 26.34,-17.429 42.164,-17.976 11.84,-0.43 23.633,-4.192 30.403,-12.582 -2.969,-1.09 -5.891,-2.328 -8.703,-3.789 -2.723,-1.43 -4.102,-4.071 -4.094,-6.781 0.004,-1.821 0.633,-3.68 1.902,-5.211 2.957,-3.598 7.16,-6.598 11.742,-7.668 1.434,-0.34 2.887,-0.309 4.336,-0.391 -0.824,-5.078 -2.519,-10.73 -5.406,-17.102 -2.949,-6.507 -6.777,-12.636 -11.137,-18.339 -2.539,1.32 -5.144,2.519 -7.867,3.523 -0.668,0.246 -1.379,0.367 -2.105,0.367 -3.75,0 -7.86,-3.07 -7.856,-6.937 0,-0.16 0.008,-0.321 0.02,-0.481 0.379,-4.261 1.484,-8.332 3.254,-12.082 -6.184,-5.469 -12.899,-9.969 -19.7,-13.828 l -2.187,1.309 c -1.61,0.89 -3.274,1.672 -4.953,2.429 -0.969,0.43 -1.961,0.813 -2.981,1.071 -0.758,0.191 -1.519,0.289 -2.273,0.289 -1.867,0 -3.668,-0.61 -5.137,-1.938 -1.621,-1.449 -2.539,-3.57 -2.539,-5.722 0,-0.547 0.059,-1.098 0.184,-1.637 0.324,-1.422 0.855,-2.774 1.375,-4.113 -6.871,-2.219 -13.559,-3.457 -19.664,-3.457"
         style="fill:#fd2155;fill-opacity:1;fill-rule:nonzero;stroke:none"
         id="path226" /><path
         d="m 1108.04,788.34 c 2.11,-14.699 -37.76,-24.371 -70.28,-29.789 2.65,-26.699 20.42,-53.68 44.94,-78.871 30.85,17.39 74.9,40.371 83.02,34.75 8.86,-6.129 -36.25,-35.289 -64.45,-52.442 19.84,-17.597 42.18,-34.019 63.9,-48.398 13.82,12.922 30.02,24.269 39.66,18.129 10.01,-6.367 7.3,-26.36 2.36,-44.199 33.57,-19.571 58.7,-31.469 58.7,-31.469 0,0 14.09,42.711 22.42,95.301 -1.69,3.339 -3.37,6.718 -4.92,10.277 -5.4,12.519 -0.13,17.84 8.8,19.601 2.31,23.02 2.97,46.692 0.55,68.649 -37.99,7.973 -84.19,22.723 -66.89,45.5 10.44,13.742 29.55,15.293 49.42,11.859 -2.78,4.582 -5.85,8.891 -9.38,12.782 -69.14,76.179 -117.37,0 -117.37,0 -40.19,33.492 -96.62,24.421 -108.82,-27.899 22.57,5.777 65.75,14.391 68.34,-3.781"
         style="fill:#fd2155;fill-opacity:1;fill-rule:nonzero;stroke:none"
         id="path228" /><path
         d="m 1265.89,556.051 c 0,0 -25.13,11.898 -58.7,31.469 2.51,9.062 4.44,18.671 4.43,26.781 -0.02,7.847 -1.86,14.289 -6.79,17.418 -1.85,1.179 -3.95,1.722 -6.23,1.722 -9.56,0 -22.27,-9.41 -33.43,-19.851 -1.9,1.262 -3.8,2.531 -5.71,3.82 -16.75,11.309 -33.71,23.789 -49.45,37.039 -2.6,2.18 -5.16,4.379 -7.68,6.61 -0.35,0.312 -0.7,0.621 -1.06,0.929 25.72,15.641 65.51,41.282 65.58,50.321 0.01,0.871 -0.35,1.589 -1.13,2.121 -0.85,0.59 -2.1,0.871 -3.68,0.871 -13.52,0 -51.72,-20.051 -79.34,-35.621 -7.65,7.859 -14.64,15.89 -20.72,24.031 -13.41,17.969 -22.39,36.469 -24.22,54.84 31.69,5.277 70.37,14.597 70.36,28.679 0,0.372 -0.02,0.739 -0.08,1.11 -1.17,8.219 -10.65,10.961 -22.77,10.961 -14.67,0 -33.21,-4.012 -45.57,-7.18 7.42,31.801 31.17,47.617 57.69,47.617 17.11,0 35.37,-6.59 51.13,-19.718 0,0 21.43,33.859 56.21,33.859 17.39,0 38.12,-8.469 61.16,-33.859 3.53,-3.891 6.6,-8.2 9.38,-12.782 -5.67,0.981 -11.29,1.551 -16.65,1.551 -13.43,0 -25.31,-3.59 -32.77,-13.41 -2.56,-3.379 -3.73,-6.59 -3.74,-9.617 -0.02,-17.391 38.28,-29.09 70.63,-35.883 1.06,-9.609 1.53,-19.539 1.53,-29.609 0,-12.938 -0.78,-26.09 -2.08,-39.04 -6.46,-1.269 -11,-4.398 -10.98,-10.761 0.01,-2.449 0.68,-5.367 2.18,-8.84 1.55,-3.559 3.23,-6.938 4.92,-10.277 -8.33,-52.59 -22.42,-95.301 -22.42,-95.301"
         style="fill:#fd2155;fill-opacity:1;fill-rule:nonzero;stroke:none"
         id="path230" /><path
         d="M 3105.98,108.711 H 1426.64 c -57.45,0 -104.02,46.57 -104.02,104.019 v 3186.68 c 0,57.45 46.57,104.02 104.02,104.02 h 1679.34 c 57.45,0 104.02,-46.57 104.02,-104.02 V 212.73 c 0,-57.449 -46.57,-104.019 -104.02,-104.019"
         style="fill:#fd2155;fill-opacity:1;fill-rule:nonzero;stroke:none"
         id="path232" /><path
         d="M 3146.92,3389.71 V 228.512 c 0,-26 -20.9,-46.203 -46.9,-46.203 h -1671.2 c -23.9,0 -41.9,18.5 -41.9,42.402 V 3393.51 c 0,20.7 15.2,38.8 35.9,38.8 h 417.8 c 11.8,0 22.5,-7.7 26.9,-18.8 l 17.3,-42.6 c 4.4,-11 15.1,-18.6 26.9,-18.6 h 711.3 c 11.8,0 22.5,7.3 26.9,18.3 l 17.3,42.8 c 4.4,11.1 15.1,18.9 26.9,18.9 h 411.8 c 22.8,0 41,-19.8 41,-42.6"
         style="fill:#fd2155;fill-opacity:1;fill-rule:nonzero;stroke:none"
         id="path234" /><path
         d="m 3146.92,392.309 h -1760 V 3234.81 h 1760 v -594.24 c -56.52,-100.9 -130.2,-253.89 -130.14,-365.68 0,-8.92 0.47,-17.58 1.46,-25.92 4.34,-36.61 18.73,-77.94 38.85,-120.5 H 2121.54 V 496.16 h 975.82 v 1557.17 c 15.63,-26.4 32.5,-52.51 49.56,-77.48 V 392.309 M 1433.19,2128.47 V 496.16 h 651.42 v 1632.31 h -651.42 m 388.67,126.04 c 21.68,-3.65 43.93,-5.54 66.65,-5.54 70.71,0 137.12,18.41 194.69,50.71 0.02,0.01 0.06,0.03 0.08,0.04 26.98,15.14 52.02,33.34 74.65,54.12 0.01,0 0.02,0.01 0.03,0.02 25.47,23.38 47.89,50.05 66.59,79.31 0.02,0.02 0.01,0.02 0.03,0.04 39.52,61.87 62.44,135.4 62.44,214.27 0,0.17 0,0.36 0,0.54 0,0.13 0,0.26 0,0.39 0,0.01 0,0.03 0,0.04 -0.08,30.7 -3.98,62.09 -11.23,93.36 -42.37,174.57 -199.68,304.17 -387.28,304.17 -220.09,0 -398.51,-178.42 -398.51,-398.5 0,-142.63 74.94,-267.76 187.57,-338.17 0.02,-0.01 0.02,-0.01 0.04,-0.02 v 0 c 19.66,-12.29 40.5,-22.92 62.25,-31.68 v 0 c 10.75,-4.32 21.72,-8.19 32.91,-11.58 v 0 c 15.96,-4.83 32.35,-8.7 49.09,-11.52 m 633.08,243.75 c -24.64,0 -44.61,-19.97 -44.61,-44.61 0,-24.63 19.97,-44.6 44.61,-44.6 h 144.19 c 24.63,0 44.61,19.97 44.61,44.6 0,24.64 -19.98,44.61 -44.61,44.61 h -144.19"
         style="fill:#fd2155;fill-opacity:1;fill-rule:nonzero;stroke:none"
         id="path236" /><path
         d="m 2227.05,3403.99 c -13.34,0 -24.15,10.81 -24.15,24.15 0,13.35 10.81,24.16 24.15,24.16 13.34,0 24.16,-10.81 24.16,-24.16 0,-13.34 -10.82,-24.15 -24.16,-24.15"
         style="fill:#a5adad;fill-opacity:1;fill-rule:nonzero;stroke:none"
         id="path238" /><path
         d="m 2284.62,3412.67 c -8.54,0 -15.47,6.93 -15.47,15.47 0,8.56 6.93,15.49 15.47,15.49 8.55,0 15.48,-6.93 15.48,-15.49 0,-8.54 -6.93,-15.47 -15.48,-15.47"
         style="fill:#a5adad;fill-opacity:1;fill-rule:nonzero;stroke:none"
         id="path240" /><path
         d="m 1585.42,3304.91 h 21.7383 v 28.9844 H 1585.42 Z"
         style="fill:#ff85c8;fill-opacity:1;fill-rule:nonzero;stroke:none"
         id="path242" /><path
         d="m 1549.99,3304.91 h 21.7422 v 38.6523 H 1549.99 Z"
         style="fill:#ff85c8;fill-opacity:1;fill-rule:nonzero;stroke:none"
         id="path244" /><path
         d="m 1514.56,3304.91 h 21.7422 v 48.3203 H 1514.56 Z"
         style="fill:#ff85c8;fill-opacity:1;fill-rule:nonzero;stroke:none"
         id="path246" /><path
         d="m 1479.13,3304.91 h 21.7422 v 57.9883 H 1479.13 Z"
         style="fill:#ff85c8;fill-opacity:1;fill-rule:nonzero;stroke:none"
         id="path248" /><path
         d="m 2939.39,3315.5 h 12.8906 v 28.9766 H 2939.39 Z"
         style="fill:#ff85c8;fill-opacity:1;fill-rule:nonzero;stroke:none"
         id="path250" /><path
         d="m 2961.13,3304.91 h 102.672 v 50.1367 H 2961.13 Z"
         style="fill:#ff85c8;fill-opacity:1;fill-rule:nonzero;stroke:none"
         id="path252" /><g
         id="g254"><g
           id="g256"
           clip-path="url(#clipPath260)"><path
             d="m 2287.02,2647.48 c 0,-220.1 -178.42,-398.51 -398.51,-398.51 -220.09,0 -398.51,178.41 -398.51,398.51 0,220.08 178.42,398.5 398.51,398.5 220.09,0 398.51,-178.42 398.51,-398.5"
             style="fill:#ffffff;fill-opacity:1;fill-rule:nonzero;stroke:none"
             id="path262" /><path
             d="m 2031.9,2714.46 c 0,0 -229.62,10.82 -400.69,-32.36 0,0 75.52,-380.22 72.65,-596.51 h 364.01 c 0,0 23.66,405.66 -35.97,628.87"
             style="fill:#4870c0;fill-opacity:1;fill-rule:nonzero;stroke:none"
             id="path264" /><path
             d="m 1910.52,2456.22 c -66.94,139.81 -125.61,210.4 -152.22,238.18 l 97.41,-46.92 5.14,7.27 25.93,-21.23 c 11.87,-43.46 19.22,-112.37 23.74,-177.3 m 25.42,29.54 c -17.01,82.54 -33.68,152.08 -33.68,152.08 l 5.8,28.56 20.57,-11.26 0.24,2.29 c 0.29,-3.2 0.56,-6.45 0.83,-9.74 2.91,-35.88 4.54,-76.27 5.44,-113.84 0.4,-16.81 0.65,-33.07 0.8,-48.09 m -304.7,196.34 v 0 c 5.17,1.3 10.39,2.55 15.65,3.76 l -14.64,-3.52 -1.01,-0.24"
             style="fill:#ff85c8;fill-opacity:1;fill-rule:nonzero;stroke:none"
             id="path266" /><path
             d="m 1765.28,2699.34 c 32.98,-29.95 113.75,-18.88 113.75,-18.88 0,0 50.42,13.8 39.83,29.56 -29.7,4.9 -44.07,18.77 -50.01,36.5 -3.45,10.33 -3.97,21.95 -3.02,33.91 0.43,6.29 1.38,12.66 2.5,18.95 l -99.86,73.95 c 13.08,-48.82 29.1,-138.61 -3.19,-173.99"
             style="fill:#f9a95e;fill-opacity:1;fill-rule:nonzero;stroke:none"
             id="path268" /><path
             d="m 1868.85,2746.52 c -24.11,3.36 -73.35,19.88 -77.31,79.8 l 74.29,-45.89 c -0.26,-3.36 -0.41,-6.7 -0.42,-9.99 0,-8.4 0.96,-16.5 3.44,-23.92"
             style="fill:#ca8849;fill-opacity:1;fill-rule:nonzero;stroke:none"
             id="path270" /><path
             d="m 1915.59,3027.26 c 0,0 34.2,-87.91 -6.28,-133.72 -40.48,-45.81 -78.37,123.61 -78.37,123.61 l 84.65,10.11"
             style="fill:#1d2a30;fill-opacity:1;fill-rule:nonzero;stroke:none"
             id="path272" /><path
             d="m 1785.25,2789.84 c 30.97,-28.45 71.17,-28.72 102.01,-10.8 19.83,11.5 35.76,30.59 42.94,54.51 0.98,3.13 1.74,6.39 2.41,9.71 11.34,60.94 -2.86,159.91 -69.83,183.22 -47.63,16.95 -100.11,-7.93 -117.05,-55.65 -4.91,-13.53 -6.42,-28.08 -4.63,-42.4 7.32,-66.64 8.49,-106.17 44.15,-138.59"
             style="fill:#f9a95e;fill-opacity:1;fill-rule:nonzero;stroke:none"
             id="path274" /><path
             d="m 1843.67,2914.88 c -0.11,-5.42 3.34,-9.7 6.96,-9.51 3.62,0.19 6.21,4.79 5.96,10.22 -0.24,5.43 -3.43,9.71 -6.96,9.51 -3.54,-0.19 -6.2,-4.7 -5.96,-10.22"
             style="fill:#1d2a30;fill-opacity:1;fill-rule:nonzero;stroke:none"
             id="path276" /><path
             d="m 1905.29,2918.03 c -0.1,-5.43 3.43,-9.71 6.97,-9.52 3.53,0.19 6.2,4.79 5.96,10.22 -0.25,5.43 -3.43,9.71 -6.97,9.52 -3.54,-0.19 -6.21,-5.05 -5.96,-10.22"
             style="fill:#1d2a30;fill-opacity:1;fill-rule:nonzero;stroke:none"
             id="path278" /><path
             d="m 1885.84,2914.35 c 7.34,-16.34 16.91,-31.59 28.42,-45.31 -7.3,-5.81 -16.8,-8.09 -25.94,-6.23 l -2.48,51.54"
             style="fill:#ec782f;fill-opacity:1;fill-rule:nonzero;stroke:none"
             id="path280" /><path
             d="m 1823.53,2933.86 c 1.19,-0.1 2.35,0.43 3.04,1.41 4.42,6.85 11.81,11.21 19.94,11.76 1.76,-0.03 3.22,1.36 3.26,3.12 0.03,1.76 -1.36,3.22 -3.12,3.25 h -0.02 c -10.29,-0.44 -19.74,-5.85 -25.33,-14.5 -1.03,-1.42 -0.71,-3.42 0.72,-4.45 l 0.06,-0.04 1.45,-0.55"
             style="fill:#1d2a30;fill-opacity:1;fill-rule:nonzero;stroke:none"
             id="path282" /><path
             d="m 1930.68,2940.63 1.9,-0.04 c 1.55,0.82 2.14,2.75 1.32,4.3 l -0.03,0.07 c -4.78,9.17 -13.72,15.43 -23.97,16.81 -1.75,0.12 -3.28,-1.19 -3.41,-2.94 v -0.01 c -0.08,-1.74 1.21,-3.25 2.95,-3.41 8.06,-1.32 15.01,-6.37 18.77,-13.62 0.61,-0.74 1.52,-1.16 2.47,-1.16"
             style="fill:#1d2a30;fill-opacity:1;fill-rule:nonzero;stroke:none"
             id="path284" /><path
             d="m 1785.97,3014.44 6.49,-29.05 c -9.13,-6.09 -13.87,-17.55 -8.28,-28.69 11.94,-23.79 1.7,-63.54 -15.76,-80.71 0,0 -1.65,10.65 -10.44,7.22 -8.79,-3.43 -0.77,-58.98 19.49,-83.85 0,0 -33.99,26.36 -54.84,83.45 -19.29,52.8 -20.55,92.83 -11.49,114.89 l 74.83,16.74"
             style="fill:#1d2a30;fill-opacity:1;fill-rule:nonzero;stroke:none"
             id="path286" /><path
             d="m 1714.66,2872.04 c 8.2,-14.76 21.92,-25.68 38.15,-30.34 21.54,-6.03 32.31,13.26 26.39,33.61 -5.44,18.05 -23.12,43.55 -44.78,40.39 -21.66,-3.15 -29.6,-25.4 -19.76,-43.66"
             style="fill:#f9a95e;fill-opacity:1;fill-rule:nonzero;stroke:none"
             id="path288" /><path
             d="m 1792.46,2985.39 c 0,0 72.41,-25.67 113.6,12.57 41.19,38.25 -6.4,89.81 -6.4,89.81 0,0 -14.51,-16.27 -37.56,-17.91 -23.06,-1.64 -76.39,12.22 -119.28,-9.59 -42.89,-21.82 -58.99,-83.71 -19.7,-111.78 l 69.34,36.9"
             style="fill:#1d2a30;fill-opacity:1;fill-rule:nonzero;stroke:none"
             id="path290" /><path
             d="m 1848,2852.13 c 0.09,-0.15 2.42,-3.96 7.05,-7.81 4.62,-3.85 11.66,-7.77 20.92,-7.77 3.28,0 6.82,0.5 10.59,1.63 1.33,0.39 2.08,1.79 1.68,3.11 -0.4,1.32 -1.79,2.07 -3.11,1.67 -3.33,-0.99 -6.38,-1.41 -9.16,-1.41 -7.81,0 -13.69,3.27 -17.72,6.61 -2.01,1.67 -3.53,3.35 -4.54,4.59 l -1.11,1.49 -0.33,0.49 c -0.72,1.18 -2.26,1.55 -3.44,0.83 -1.18,-0.72 -1.55,-2.26 -0.83,-3.43"
             style="fill:#1d2a30;fill-opacity:1;fill-rule:nonzero;stroke:none"
             id="path292" /><path
             d="m 1911.92,2685.35 -9.66,-47.51 c 0,0 55.3,-230.71 67.2,-350.38 l -20.15,-20.19 -31.72,20.19 c 0,0 -2.83,243.68 -30.81,346.06 l -50.15,41.06 39.47,12.78 35.82,-2.01"
             style="fill:#4870c0;fill-opacity:1;fill-rule:nonzero;stroke:none"
             id="path294" /><path
             d="m 1776.58,2744.54 95.92,-43.25 5.62,34.67 35.27,-12.4 c 12.66,-4.46 20.61,-17.02 19.21,-30.36 l -3.97,-38.06 -48.67,26.64 -24.25,-34.3 -115.23,55.5 36.1,41.56"
             style="fill:#4870c0;fill-opacity:1;fill-rule:nonzero;stroke:none"
             id="path296" /><path
             d="m 1855.71,2647.48 -97.41,46.92 c -6.77,7.07 -11.47,11.37 -13.7,13.32 l 31.98,36.82 95.92,-43.25 5.62,34.67 35.27,-12.4 c 2.57,-0.91 4.94,-2.15 7.09,-3.65 h -0.16 c 0,0 0.01,-0.01 0.01,-0.02 h -0.01 c 0,0 0.01,-0.01 0.01,-0.02 -0.01,0.01 -0.02,0.01 -0.02,0.01 3.6,-16.76 6.39,-38.38 8.56,-62.45 l -0.24,-2.29 -20.57,11.26 -28.1,15.38 -19.11,-27.03 -5.14,-7.27"
             style="fill:#ff85c8;fill-opacity:1;fill-rule:nonzero;stroke:none"
             id="path298" /><path
             d="m 1743.11,2708.95 c 0,0 90.51,-73.67 192.75,-308.32 0,0 3.72,229.32 -15.54,319.26 l 111.55,-5.41 c 0,0 81.66,-180.35 40.64,-569.97 l 28.32,-194.8 -123.02,-51.46 -28.36,90.59 -29.13,-89.02 -237.17,31.72 12.56,245.99 c 0,0 -56.93,406.54 -64.47,504.57 l 111.87,26.85"
             style="fill:#1d2a30;fill-opacity:1;fill-rule:nonzero;stroke:none"
             id="path300" /><path
             d="m 2083.2,2299.68 c 0.15,4.85 0.27,9.68 0.38,14.45 0.03,0 0.05,-0.01 0.08,-0.01 -0.11,-4.76 -0.23,-9.56 -0.38,-14.4 -0.02,-0.01 -0.06,-0.03 -0.08,-0.04 m -51.23,414.57 c -0.01,0.03 -0.02,0.06 -0.03,0.08 -0.02,0.04 -0.03,0.09 -0.04,0.13 0,0 -0.01,0 -0.02,0.01 -0.01,0 -0.01,0.01 -0.01,0.01 v 0 0 l -111.36,5.4 c -0.01,0.01 -0.02,0.02 -0.03,0.03 l 111.43,-5.42 v 0 0 c 0,0 0.01,-0.02 0.02,-0.05 -0.01,0.01 -0.02,0.01 -0.03,0.01 0,0 0.03,-0.07 0.07,-0.2"
             style="fill:#ffffff;fill-opacity:1;fill-rule:nonzero;stroke:none"
             id="path302" /><path
             d="m 2031.94,2714.33 c -0.04,0.07 -0.06,0.12 -0.06,0.14 0.01,-0.01 0.02,-0.01 0.02,-0.01 0.01,-0.04 0.02,-0.09 0.04,-0.13"
             style="fill:#537bc6;fill-opacity:1;fill-rule:nonzero;stroke:none"
             id="path304" /><path
             d="m 1910.53,2456.12 c -67,139.98 -125.75,210.6 -152.33,238.33 l 0.1,-0.05 c 26.61,-27.78 85.28,-98.37 152.22,-238.18 0,-0.04 0.01,-0.07 0.01,-0.1"
             style="fill:#ff85c8;fill-opacity:1;fill-rule:nonzero;stroke:none"
             id="path306" /><path
             d="m 1915.47,2445.7 c -1.65,3.52 -3.3,6.98 -4.94,10.42 0,0.03 -0.01,0.06 -0.01,0.1 1.66,-3.46 3.32,-6.97 4.99,-10.51 -0.02,0 -0.03,-0.01 -0.04,-0.01"
             style="fill:#537bc6;fill-opacity:1;fill-rule:nonzero;stroke:none"
             id="path308" /><path
             d="m 1648.06,2686.14 87.31,21 7.76,1.84 c 0,0 0.5,-0.41 1.47,-1.26 l -0.02,-0.03 c -0.96,0.85 -1.46,1.25 -1.46,1.25 h -0.01 v 0.01 l -2.42,-0.58 -5.33,-1.26 c -0.01,-0.01 -0.01,-0.02 -0.02,-0.03 l -86.63,-20.79 c -0.23,-0.05 -0.42,-0.1 -0.65,-0.15"
             style="fill:#ffffff;fill-opacity:1;fill-rule:nonzero;stroke:none"
             id="path310" /><path
             d="m 1646.89,2685.86 1.17,0.28 c 0.23,0.05 0.42,0.1 0.65,0.15 l -1.14,-0.28 c -0.22,-0.05 -0.45,-0.1 -0.68,-0.15"
             style="fill:#537bc6;fill-opacity:1;fill-rule:nonzero;stroke:none"
             id="path312" /><path
             d="m 1632.25,2682.34 14.64,3.52 c 0.23,0.05 0.46,0.1 0.68,0.15 l -15.32,-3.67"
             style="fill:#ff85c8;fill-opacity:1;fill-rule:nonzero;stroke:none"
             id="path314" /><path
             d="m 1758.3,2694.4 -0.1,0.05 c -0.07,0.07 -0.13,0.14 -0.2,0.21 -6.64,6.91 -11.23,11.11 -13.42,13.03 l 0.02,0.03 c 2.23,-1.95 6.93,-6.25 13.7,-13.32 m 162.21,25.48 -0.18,0.01 c 0,0.01 -0.01,0.02 -0.01,0.02 h 0.16 c 0.01,-0.01 0.02,-0.02 0.03,-0.03"
             style="fill:#ff85c8;fill-opacity:1;fill-rule:nonzero;stroke:none"
             id="path316" /><path
             d="m 1888.51,2248.97 c -22.72,0 -44.97,1.89 -66.65,5.54 67.58,31 147.62,82.89 147.62,82.89 47.7,-11.84 85.81,-19.02 114.1,-23.27 -0.11,-4.77 -0.23,-9.6 -0.38,-14.45 -57.57,-32.3 -123.98,-50.71 -194.69,-50.71 m -22.56,182.81 c -14.17,10.91 -40.81,30.58 -53.4,34.51 -1.66,0.52 -3.47,0.75 -5.38,0.75 -1.52,0 -3.11,-0.14 -4.74,-0.42 l -89.5,108.89 c -12.44,23.09 -23.07,42.59 -29.82,52.79 -16.83,25.4 -39.22,43.65 -51.73,52.67 -0.03,0.38 -0.06,0.76 -0.09,1.14 l 0.96,0.23 15.32,3.67 1.14,0.28 86.63,20.79 C 1712.99,2664.1 1720,2593.6 1720,2593.6 l 75.37,14.85 -30.05,-46.4 110.68,-127.62 c -3.43,-0.93 -6.78,-1.81 -10.05,-2.65 m 49.49,13.91 c -69.21,147.28 -130.32,220.71 -157.44,248.97 0.07,-0.07 0.13,-0.14 0.2,-0.21 v 0 c 26.58,-27.73 85.33,-98.35 152.33,-238.33 1.64,-3.44 3.29,-6.9 4.94,-10.42 -0.01,0 -0.02,0 -0.03,-0.01 m 66.83,20.94 c 13.22,54.63 20.59,102.76 20.59,102.76 l -25.88,45.65 h 34.64 v 0 c -37.55,75.12 -90.13,104.2 -91.29,104.83 0,0.01 0,0.01 0,0.02 l 0.18,-0.01 111.36,-5.4 v 0 c 0,0 0,-0.01 0.01,-0.01 0,-0.02 0.02,-0.07 0.06,-0.14 0.01,-0.02 0.02,-0.05 0.03,-0.08 1.19,-3.59 18.26,-55.7 31.8,-125.38 6.2,-31.9 10.18,-61.05 12.57,-81.66 -6.21,-5.66 -13.57,-13.48 -19.22,-19.7 l -2.43,3.41 c 0,0 -31.74,-11.06 -72.42,-24.29 m -241.58,241.74 2.42,0.58 v -0.01 l -2.42,-0.57"
             style="fill:#304047;fill-opacity:1;fill-rule:nonzero;stroke:none"
             id="path318" /><path
             d="m 1935.14,2533.85 c -0.9,37.57 -2.53,77.96 -5.44,113.84 2.91,-35.88 4.55,-76.26 5.44,-113.84"
             style="fill:#ff85c8;fill-opacity:1;fill-rule:nonzero;stroke:none"
             id="path320" /><path
             d="m 1935.94,2485.73 c 0,0 0,0.02 0,0.03 -0.15,15.02 -0.4,31.28 -0.8,48.09 0.4,-16.82 0.65,-33.09 0.8,-48.12"
             style="fill:#ff85c8;fill-opacity:1;fill-rule:nonzero;stroke:none"
             id="path322" /><path
             d="m 1936.13,2451.98 c -0.02,10.22 -0.07,21.6 -0.19,33.78 0,-0.01 0,-0.03 0,-0.03 0.13,-12.18 0.18,-23.53 0.2,-33.74 l -0.01,-0.01"
             style="fill:#ff85c8;fill-opacity:1;fill-rule:nonzero;stroke:none"
             id="path324" /><path
             d="m 1929.7,2647.69 c -0.27,3.29 -0.54,6.54 -0.83,9.74 v 0.01 c 0.29,-3.21 0.56,-6.46 0.83,-9.75"
             style="fill:#ff85c8;fill-opacity:1;fill-rule:nonzero;stroke:none"
             id="path326" /><path
             d="m 1928.87,2657.43 c -2.17,24.07 -4.96,45.69 -8.56,62.45 0,0 0.01,0 0.02,-0.01 2.98,-13.96 5.42,-31.26 7.4,-50.55 0.4,-3.88 0.78,-7.85 1.14,-11.88 v -0.01"
             style="fill:#ff85c8;fill-opacity:1;fill-rule:nonzero;stroke:none"
             id="path328" /><path
             d="m 1927.73,2669.32 c -1.98,19.29 -4.42,36.59 -7.4,50.55 v 0 c 2.99,-13.96 5.42,-31.26 7.4,-50.55"
             style="fill:#45555c;fill-opacity:1;fill-rule:nonzero;stroke:none"
             id="path330" /><path
             d="m 1935.95,2485.69 c 0,0.01 -0.01,0.03 -0.01,0.04 -0.15,15.03 -0.4,31.3 -0.8,48.12 -0.89,37.58 -2.53,77.96 -5.44,113.84 -0.27,3.29 -0.54,6.54 -0.83,9.75 v 0 c 4.85,-53.88 6.56,-120.06 7.08,-171.75"
             style="fill:#ff85c8;fill-opacity:1;fill-rule:nonzero;stroke:none"
             id="path332" /><path
             d="m 1936.14,2451.99 c -0.02,10.21 -0.07,21.56 -0.2,33.74 0,-0.01 0.01,-0.03 0.01,-0.04 0.12,-12.15 0.18,-23.5 0.19,-33.7 v 0"
             style="fill:#ff85c8;fill-opacity:1;fill-rule:nonzero;stroke:none"
             id="path334" /><path
             d="m 1735.34,2707.08 c 0.01,0.01 0.01,0.02 0.02,0.03 l 5.33,1.26 -5.35,-1.29 m 9.23,0.61 c -0.89,0.79 -1.39,1.19 -1.46,1.25 h 0.01 c 0,0 0.5,-0.4 1.46,-1.25 h -0.01"
             style="fill:#ffffff;fill-opacity:1;fill-rule:nonzero;stroke:none"
             id="path336" /><path
             d="m 1928.87,2657.44 c -0.36,4.03 -0.74,8 -1.14,11.88 0.4,-3.89 0.78,-7.84 1.14,-11.88 v 0 M 1758,2694.66 c -6.63,6.9 -11.23,11.1 -13.43,13.03 h 0.01 c 2.19,-1.92 6.78,-6.12 13.42,-13.03"
             style="fill:#ff85c8;fill-opacity:1;fill-rule:nonzero;stroke:none"
             id="path338" /><path
             d="m 1876,2434.43 -110.68,127.62 30.05,46.4 -75.37,-14.85 c 0,0 -7.01,70.5 15.34,113.48 l 5.35,1.29 2.42,0.57 c 0.07,-0.06 0.57,-0.46 1.46,-1.25 v 0 c 2.2,-1.93 6.8,-6.13 13.43,-13.03 27.12,-28.26 88.23,-101.69 157.44,-248.97 -13.64,-4.07 -27.02,-7.92 -39.44,-11.26 m 60.14,17.56 c -0.01,10.2 -0.07,21.55 -0.19,33.7 -0.52,51.69 -2.23,117.87 -7.08,171.75 v 0 c -0.36,4.04 -0.74,7.99 -1.14,11.88 -1.98,19.29 -4.41,36.59 -7.4,50.55 1.16,-0.63 53.74,-29.71 91.29,-104.83 h -34.64 l 25.88,-45.65 c 0,0 -7.37,-48.13 -20.59,-102.76 -14.58,-4.74 -30.3,-9.76 -46.13,-14.64"
             style="fill:#57676e;fill-opacity:1;fill-rule:nonzero;stroke:none"
             id="path340" /><path
             d="m 2083.66,2314.12 c -0.03,0 -0.05,0.01 -0.08,0.01 0.25,10.92 0.39,21.62 0.44,32.07 0.01,0 0.01,0 0.03,0 -0.04,-10.46 -0.17,-21.16 -0.39,-32.08 v 0"
             style="fill:#cecdcc;fill-opacity:1;fill-rule:nonzero;stroke:none"
             id="path342" /><path
             d="m 1821.86,2254.51 c -16.74,2.82 -33.13,6.69 -49.09,11.52 2.12,-0.14 4.28,-0.21 6.49,-0.21 52.5,-0.01 129.82,40.22 194.95,81.18 21.67,-1.01 44.49,-1.66 67.22,-1.66 14.34,0 28.64,0.26 42.59,0.86 -0.05,-10.45 -0.19,-21.15 -0.44,-32.07 -28.29,4.25 -66.4,11.43 -114.1,23.27 0,0 -80.04,-51.89 -147.62,-82.89 m -82,23.1 c -21.75,8.76 -42.59,19.39 -62.25,31.68 -1.46,10.71 -2.97,21.82 -4.5,33.2 -2.12,15.85 -4.31,32.24 -6.56,48.92 22.25,-51.04 48.35,-94.08 73.31,-113.8 m 40.12,180.23 c -21.15,31.9 -46.56,79.65 -67.05,117.67 l 89.5,-108.89 c -7.22,-1.2 -15.33,-4.85 -22.45,-8.78"
             style="fill:#263136;fill-opacity:1;fill-rule:nonzero;stroke:none"
             id="path344" /><path
             d="m 2031.9,2714.45 c 49.2,-11.53 201.09,-226.84 196.68,-315.09 -4.4,-88.26 -385.78,-41.8 -385.78,-41.8 l 9.95,43.07 226.64,75.96 c 0,0 -3.73,51.08 -15.62,112.28 -14.03,72.23 -31.87,125.58 -31.87,125.58"
             style="fill:#1d2a30;fill-opacity:1;fill-rule:nonzero;stroke:none"
             id="path346" /><path
             d="m 2113.13,2348.01 c 15.97,1.34 31.11,3.25 44.83,5.85 -0.01,-0.01 -0.02,-0.02 -0.03,-0.02 -13.71,-2.6 -28.83,-4.5 -44.8,-5.83 m -40.82,337.08 c -16.23,16.3 -30.41,27 -40.37,29.35 -0.02,0.03 -0.03,0.05 -0.03,0.05 9.97,-2.35 24.15,-13.07 40.4,-29.4"
             style="fill:#ffffff;fill-opacity:1;fill-rule:nonzero;stroke:none"
             id="path348" /><path
             d="m 2031.94,2714.44 h -0.01 c -0.01,0.03 -0.02,0.05 -0.02,0.05 v 0 c 0,0 0.01,-0.02 0.03,-0.05"
             style="fill:#ffffff;fill-opacity:1;fill-rule:nonzero;stroke:none"
             id="path350" /><path
             d="m 2042,2345.37 c -10.28,0 -20.58,0.14 -30.79,0.38 75.62,54 133.71,131.54 133.71,131.54 v 0.01 l 0.02,0.02 c 0,0 -0.01,0 -0.03,0.01 -16.55,72.67 -82.53,123.23 -82.53,123.23 l -0.75,-0.92 v 0 c -13.37,65.51 -29.15,113.14 -29.7,114.8 h 0.01 c 9.96,-2.35 24.14,-13.05 40.37,-29.35 54.97,-55.25 133.57,-174.76 152.24,-251.92 -18.7,-29.26 -41.12,-55.93 -66.59,-79.31 -13.72,-2.6 -28.86,-4.51 -44.83,-5.85 -22.54,-1.88 -46.77,-2.64 -71.13,-2.64"
             style="fill:#304047;fill-opacity:1;fill-rule:nonzero;stroke:none"
             id="path352" /><path
             d="m 2011.21,2345.75 v 0 c -12.55,0.28 -24.94,0.72 -36.97,1.27 67.54,42.47 121.94,85.72 121.94,85.72 v 0 0 l -5.68,7.97 54.42,36.59 v -0.01 c 0,0 -58.09,-77.54 -133.71,-131.54"
             style="fill:#263136;fill-opacity:1;fill-rule:nonzero;stroke:none"
             id="path354" /><path
             d="m 2144.91,2477.33 c -1.29,0.93 -50.68,36.3 -57.2,37.39 -0.1,0.01 -0.2,0.02 -0.3,0.02 -2.08,0 -6.22,-3.1 -11.06,-7.52 -2.39,20.6 -6.37,49.76 -12.55,81.66 -0.67,3.67 -1.42,7.18 -2.17,10.76 l 0.75,0.92 c 0,0 65.98,-50.56 82.53,-123.23"
             style="fill:#263136;fill-opacity:1;fill-rule:nonzero;stroke:none"
             id="path356" /><path
             d="m 1875.29,2424.47 c 0,0 -45.13,36.32 -62.74,41.82 -17.61,5.5 -51.72,-20.91 -51.72,-20.91 l 44.02,-62.74 70.44,41.83"
             style="fill:#f9a95e;fill-opacity:1;fill-rule:nonzero;stroke:none"
             id="path358" /><path
             d="m 2077.8,2432.17 67.14,45.15 c 0,0 -50.63,36.3 -57.23,37.4 -6.61,1.1 -39.62,-37.4 -39.62,-37.4 l 29.71,-45.15"
             style="fill:#f9a95e;fill-opacity:1;fill-rule:nonzero;stroke:none"
             id="path360" /><path
             d="m 1631.28,2682.07 c -65.26,-31.98 28.11,-341.9 109.1,-404.86 80.98,-62.96 355.8,155.53 355.8,155.53 l -41.49,58.18 c 0,0 -215.06,-74.93 -242.91,-67.94 -27.84,6.99 -104.03,168.11 -128.67,205.32 -24.64,37.2 -61.22,59.06 -61.22,59.06 l 9.39,-5.29"
             style="fill:#1d2a30;fill-opacity:1;fill-rule:nonzero;stroke:none"
             id="path362" /><path
             d="m 1779.26,2265.82 c -2.21,0 -4.37,0.07 -6.49,0.21 -11.19,3.39 -22.16,7.26 -32.91,11.58 -61.75,48.76 -130.49,240.31 -130.53,342.34 -0.01,31 6.32,53.74 21.12,61.69 12.3,-8.77 35.41,-27.29 52.66,-53.34 24.64,-37.21 100.83,-198.33 128.67,-205.32 1.24,-0.31 2.85,-0.46 4.81,-0.46 41.8,0 238.1,68.4 238.1,68.4 l 41.49,-58.18 c 0,0 -54.4,-43.25 -121.94,-85.72 v 0 c -0.01,-0.01 -0.02,-0.02 -0.03,-0.02 -65.13,-40.96 -142.45,-81.19 -194.95,-81.18 m -148.81,415.82 c -5.27,3.75 -8.56,5.72 -8.56,5.72 l 9.39,-5.29 c -0.01,-0.01 -0.02,-0.01 -0.03,-0.02 -0.01,0 -0.02,-0.01 -0.03,-0.01 -0.26,-0.13 -0.52,-0.26 -0.77,-0.4"
             style="fill:#304047;fill-opacity:1;fill-rule:nonzero;stroke:none"
             id="path364" /></g></g><path
         d="m 2829.29,2832.65 h -371.11 c -26.43,0 -47.85,21.43 -47.85,47.86 0,26.43 21.42,47.86 47.85,47.86 h 371.11 c 26.43,0 47.85,-21.43 47.85,-47.86 0,-26.43 -21.42,-47.86 -47.85,-47.86"
         style="fill:#850045;fill-opacity:1;fill-rule:nonzero;stroke:none"
         id="path366" /><path
         d="m 2998.42,2719.42 h -569.74 c -10.14,0 -18.35,8.22 -18.35,18.35 0,10.14 8.21,18.36 18.35,18.36 h 569.74 c 10.14,0 18.35,-8.22 18.35,-18.36 0,-10.13 -8.21,-18.35 -18.35,-18.35"
         style="fill:#850045;fill-opacity:1;fill-rule:nonzero;stroke:none"
         id="path368" /><path
         d="m 2756.7,2633.99 h -328.02 c -10.14,0 -18.35,8.22 -18.35,18.35 0,10.14 8.21,18.35 18.35,18.35 h 328.02 c 10.14,0 18.35,-8.21 18.35,-18.35 0,-10.13 -8.21,-18.35 -18.35,-18.35"
         style="fill:#850045;fill-opacity:1;fill-rule:nonzero;stroke:none"
         id="path370" /><path
         d="m 2599.13,2409.05 h -144.19 c -24.64,0 -44.61,19.97 -44.61,44.6 0,24.64 19.97,44.61 44.61,44.61 h 144.19 c 24.63,0 44.61,-19.97 44.61,-44.61 0,-24.63 -19.98,-44.6 -44.61,-44.6"
         style="fill:#850045;fill-opacity:1;fill-rule:nonzero;stroke:none"
         id="path372" /><path
         d="m 1433.19,496.16 h 651.418 V 2128.47 H 1433.19 Z"
         style="fill:#850045;fill-opacity:1;fill-rule:nonzero;stroke:none"
         id="path374" /><path
         d="m 1913.53,1697.35 h -369.75 c -10.13,0 -18.35,8.23 -18.35,18.35 0,10.14 8.22,18.35 18.35,18.35 h 369.75 c 10.13,0 18.35,-8.21 18.35,-18.35 0,-10.12 -8.22,-18.35 -18.35,-18.35"
         style="fill:#fd2155;fill-opacity:1;fill-rule:nonzero;stroke:none"
         id="path376" /><path
         d="m 1771.8,1611.93 h -228.02 c -10.13,0 -18.35,8.21 -18.35,18.34 0,10.14 8.22,18.35 18.35,18.35 h 228.02 c 10.14,0 18.35,-8.21 18.35,-18.35 0,-10.13 -8.21,-18.34 -18.35,-18.34"
         style="fill:#fd2155;fill-opacity:1;fill-rule:nonzero;stroke:none"
         id="path378" /><path
         d="m 1813.53,1441.83 h -269.75 c -10.13,0 -18.35,8.21 -18.35,18.35 0,10.12 8.22,18.35 18.35,18.35 h 269.75 c 10.13,0 18.35,-8.23 18.35,-18.35 0,-10.14 -8.22,-18.35 -18.35,-18.35"
         style="fill:#fd2155;fill-opacity:1;fill-rule:nonzero;stroke:none"
         id="path380" /><path
         d="m 1871.8,1356.4 h -328.02 c -10.13,0 -18.35,8.21 -18.35,18.35 0,10.12 8.22,18.35 18.35,18.35 h 328.02 c 10.14,0 18.35,-8.23 18.35,-18.35 0,-10.14 -8.21,-18.35 -18.35,-18.35"
         style="fill:#fd2155;fill-opacity:1;fill-rule:nonzero;stroke:none"
         id="path382" /><path
         d="m 1913.53,1186.29 h -369.75 c -10.13,0 -18.35,8.21 -18.35,18.35 0,10.14 8.22,18.35 18.35,18.35 h 369.75 c 10.13,0 18.35,-8.21 18.35,-18.35 0,-10.14 -8.22,-18.35 -18.35,-18.35"
         style="fill:#fd2155;fill-opacity:1;fill-rule:nonzero;stroke:none"
         id="path384" /><path
         d="m 1671.8,1100.86 h -128.02 c -10.13,0 -18.35,8.21 -18.35,18.35 0,10.14 8.22,18.35 18.35,18.35 h 128.02 c 10.14,0 18.35,-8.21 18.35,-18.35 0,-10.14 -8.21,-18.35 -18.35,-18.35"
         style="fill:#fd2155;fill-opacity:1;fill-rule:nonzero;stroke:none"
         id="path386" /><path
         d="m 1713.53,930.75 h -169.75 c -10.13,0 -18.35,8.23 -18.35,18.352 0,10.136 8.22,18.347 18.35,18.347 h 169.75 c 10.13,0 18.35,-8.211 18.35,-18.347 0,-10.122 -8.22,-18.352 -18.35,-18.352"
         style="fill:#fd2155;fill-opacity:1;fill-rule:nonzero;stroke:none"
         id="path388" /><path
         d="m 1871.8,845.32 h -328.02 c -10.13,0 -18.35,8.231 -18.35,18.352 0,10.137 8.22,18.348 18.35,18.348 h 328.02 c 10.14,0 18.35,-8.211 18.35,-18.348 0,-10.121 -8.21,-18.352 -18.35,-18.352"
         style="fill:#fd2155;fill-opacity:1;fill-rule:nonzero;stroke:none"
         id="path390" /><path
         d="m 3097.36,496.16 h -975.82 v 1632.31 h 935.55 c 11.76,-24.86 25.47,-50.14 40.27,-75.14 V 496.16 m -821.9,181.988 c -10.14,0 -18.35,-8.218 -18.35,-18.339 0,-10.137 8.21,-18.348 18.35,-18.348 h 629.75 c 10.13,0 18.34,8.211 18.34,18.348 0,10.121 -8.21,18.339 -18.34,18.339 h -629.75 m 0,187.352 c -10.14,0 -18.35,-8.211 -18.35,-18.352 0,-10.136 8.21,-18.347 18.35,-18.347 h 499.75 c 10.13,0 18.34,8.211 18.34,18.347 0,10.141 -8.21,18.352 -18.34,18.352 h -499.75 m 0,101.91 c -10.14,0 -18.35,-8.211 -18.35,-18.34 0,-10.129 8.21,-18.359 18.35,-18.359 h 628.02 c 10.13,0 18.35,8.23 18.35,18.359 0,10.129 -8.22,18.34 -18.35,18.34 h -628.02 m 0,85.44 c -10.14,0 -18.35,-8.22 -18.35,-18.35 0,-10.13 8.21,-18.35 18.35,-18.35 h 629.75 c 10.13,0 18.34,8.22 18.34,18.35 0,10.13 -8.21,18.35 -18.34,18.35 h -629.75 m 120,101.92 c -10.14,0 -18.35,-8.22 -18.35,-18.35 0,-10.14 8.21,-18.35 18.35,-18.35 h 508.02 c 10.13,0 18.35,8.21 18.35,18.35 0,10.13 -8.22,18.35 -18.35,18.35 h -508.02 m -120,187.34 c -10.14,0 -18.35,-8.21 -18.35,-18.35 0,-10.13 8.21,-18.35 18.35,-18.35 h 488.02 c 10.13,0 18.35,8.22 18.35,18.35 0,10.14 -8.22,18.35 -18.35,18.35 h -488.02 m 0,85.44 c -10.14,0 -18.35,-8.22 -18.35,-18.35 0,-10.14 8.21,-18.35 18.35,-18.35 h 629.75 c 10.13,0 18.34,8.21 18.34,18.35 0,10.13 -8.21,18.35 -18.34,18.35 h -629.75 m 0,101.91 c -10.14,0 -18.35,-8.21 -18.35,-18.35 0,-10.13 8.21,-18.35 18.35,-18.35 h 628.02 c 10.13,0 18.35,8.22 18.35,18.35 0,10.14 -8.22,18.35 -18.35,18.35 h -628.02 m 0,85.43 c -10.14,0 -18.35,-8.21 -18.35,-18.35 0,-10.13 8.21,-18.35 18.35,-18.35 h 629.75 c 10.13,0 18.34,8.22 18.34,18.35 0,10.14 -8.21,18.35 -18.34,18.35 h -629.75 m 0,101.92 c -10.14,0 -18.35,-8.22 -18.35,-18.35 0,-10.13 8.21,-18.35 18.35,-18.35 h 628.02 c 10.13,0 18.35,8.22 18.35,18.35 0,10.13 -8.22,18.35 -18.35,18.35 h -628.02 m 120,85.43 c -10.14,0 -18.35,-8.22 -18.35,-18.35 0,-10.13 8.21,-18.35 18.35,-18.35 h 509.75 c 10.13,0 18.34,8.22 18.34,18.35 0,10.13 -8.21,18.35 -18.34,18.35 h -509.75 m -120,187.35 c -10.14,0 -18.35,-8.22 -18.35,-18.35 0,-10.14 8.21,-18.35 18.35,-18.35 h 269.74 c 10.14,0 18.35,8.21 18.35,18.35 0,10.13 -8.21,18.35 -18.35,18.35 h -269.74"
         style="fill:#ff85c8;fill-opacity:1;fill-rule:nonzero;stroke:none"
         id="path392" /><path
         d="m 2545.2,1952.89 h -269.74 c -10.14,0 -18.35,8.21 -18.35,18.35 0,10.13 8.21,18.35 18.35,18.35 h 269.74 c 10.14,0 18.35,-8.22 18.35,-18.35 0,-10.14 -8.21,-18.35 -18.35,-18.35"
         style="fill:#fd2155;fill-opacity:1;fill-rule:nonzero;stroke:none"
         id="path394" /><path
         d="m 2905.21,1765.54 h -509.75 c -10.14,0 -18.35,8.22 -18.35,18.35 0,10.13 8.21,18.35 18.35,18.35 h 509.75 c 10.13,0 18.34,-8.22 18.34,-18.35 0,-10.13 -8.21,-18.35 -18.34,-18.35"
         style="fill:#fd2155;fill-opacity:1;fill-rule:nonzero;stroke:none"
         id="path396" /><path
         d="m 2903.48,1680.11 h -628.02 c -10.14,0 -18.35,8.22 -18.35,18.35 0,10.13 8.21,18.35 18.35,18.35 h 628.02 c 10.13,0 18.35,-8.22 18.35,-18.35 0,-10.13 -8.22,-18.35 -18.35,-18.35"
         style="fill:#fd2155;fill-opacity:1;fill-rule:nonzero;stroke:none"
         id="path398" /><path
         d="m 2905.21,1578.19 h -629.75 c -10.14,0 -18.35,8.22 -18.35,18.35 0,10.14 8.21,18.35 18.35,18.35 h 629.75 c 10.13,0 18.34,-8.21 18.34,-18.35 0,-10.13 -8.21,-18.35 -18.34,-18.35"
         style="fill:#fd2155;fill-opacity:1;fill-rule:nonzero;stroke:none"
         id="path400" /><path
         d="m 2903.48,1492.76 h -628.02 c -10.14,0 -18.35,8.22 -18.35,18.35 0,10.14 8.21,18.35 18.35,18.35 h 628.02 c 10.13,0 18.35,-8.21 18.35,-18.35 0,-10.13 -8.22,-18.35 -18.35,-18.35"
         style="fill:#fd2155;fill-opacity:1;fill-rule:nonzero;stroke:none"
         id="path402" /><path
         d="m 2905.21,1390.85 h -629.75 c -10.14,0 -18.35,8.21 -18.35,18.35 0,10.13 8.21,18.35 18.35,18.35 h 629.75 c 10.13,0 18.34,-8.22 18.34,-18.35 0,-10.14 -8.21,-18.35 -18.34,-18.35"
         style="fill:#fd2155;fill-opacity:1;fill-rule:nonzero;stroke:none"
         id="path404" /><path
         d="m 2763.48,1305.41 h -488.02 c -10.14,0 -18.35,8.22 -18.35,18.35 0,10.14 8.21,18.35 18.35,18.35 h 488.02 c 10.13,0 18.35,-8.21 18.35,-18.35 0,-10.13 -8.22,-18.35 -18.35,-18.35"
         style="fill:#fd2155;fill-opacity:1;fill-rule:nonzero;stroke:none"
         id="path406" /><path
         d="m 2903.48,1118.07 h -508.02 c -10.14,0 -18.35,8.21 -18.35,18.35 0,10.13 8.21,18.35 18.35,18.35 h 508.02 c 10.13,0 18.35,-8.22 18.35,-18.35 0,-10.14 -8.22,-18.35 -18.35,-18.35"
         style="fill:#fd2155;fill-opacity:1;fill-rule:nonzero;stroke:none"
         id="path408" /><path
         d="m 2905.21,1016.15 h -629.75 c -10.14,0 -18.35,8.22 -18.35,18.35 0,10.13 8.21,18.35 18.35,18.35 h 629.75 c 10.13,0 18.34,-8.22 18.34,-18.35 0,-10.13 -8.21,-18.35 -18.34,-18.35"
         style="fill:#fd2155;fill-opacity:1;fill-rule:nonzero;stroke:none"
         id="path410" /><path
         d="m 2903.48,930.711 h -628.02 c -10.14,0 -18.35,8.23 -18.35,18.359 0,10.129 8.21,18.34 18.35,18.34 h 628.02 c 10.13,0 18.35,-8.211 18.35,-18.34 0,-10.129 -8.22,-18.359 -18.35,-18.359"
         style="fill:#fd2155;fill-opacity:1;fill-rule:nonzero;stroke:none"
         id="path412" /><path
         d="m 2775.21,828.801 h -499.75 c -10.14,0 -18.35,8.211 -18.35,18.347 0,10.141 8.21,18.352 18.35,18.352 h 499.75 c 10.13,0 18.34,-8.211 18.34,-18.352 0,-10.136 -8.21,-18.347 -18.34,-18.347"
         style="fill:#fd2155;fill-opacity:1;fill-rule:nonzero;stroke:none"
         id="path414" /><path
         d="m 2905.21,641.461 h -629.75 c -10.14,0 -18.35,8.211 -18.35,18.348 0,10.121 8.21,18.339 18.35,18.339 h 629.75 c 10.13,0 18.34,-8.218 18.34,-18.339 0,-10.137 -8.21,-18.348 -18.34,-18.348"
         style="fill:#fd2155;fill-opacity:1;fill-rule:nonzero;stroke:none"
         id="path416" /><path
         d="m 1813.53,1952.89 h -269.75 c -10.13,0 -18.35,8.21 -18.35,18.35 0,10.13 8.22,18.35 18.35,18.35 h 269.75 c 10.13,0 18.35,-8.22 18.35,-18.35 0,-10.14 -8.22,-18.35 -18.35,-18.35"
         style="fill:#fd2155;fill-opacity:1;fill-rule:nonzero;stroke:none"
         id="path418" /><path
         d="m 1671.8,1867.46 h -128.02 c -10.13,0 -18.35,8.22 -18.35,18.35 0,10.14 8.22,18.35 18.35,18.35 h 128.02 c 10.14,0 18.35,-8.21 18.35,-18.35 0,-10.13 -8.21,-18.35 -18.35,-18.35"
         style="fill:#fd2155;fill-opacity:1;fill-rule:nonzero;stroke:none"
         id="path420" /><path
         d="m 3969.01,2467 24.4,44.34 62.76,91.28 11.82,75.6 c 0,0 54.97,-20.51 64.04,-36.33 9.07,-15.82 4.78,-96.97 0,-106.84 -4.78,-9.87 -61.53,-48.85 -61.53,-48.85 l -30.28,-57.94 -71.21,38.74"
         style="fill:#f9a95e;fill-opacity:1;fill-rule:nonzero;stroke:none"
         id="path422" /><path
         d="m 3690.6,2784.75 c 0,0 203.25,-319.13 226.98,-347.7 23.74,-28.57 50.11,74.29 50.11,74.29 l 102.86,-44.84 c 0,0 -29.01,-195.07 -108.13,-203.03 -79.12,-7.96 -247.91,200.39 -247.91,200.39 l -23.91,320.89"
         style="fill:#1d2a30;fill-opacity:1;fill-rule:nonzero;stroke:none"
         id="path424" /><path
         d="m 3957.95,2263.23 c -3.57,0 -7.3,0.4 -11.17,1.15 3.84,-0.74 7.54,-1.13 11.09,-1.13 1.55,0 3.06,0.07 4.55,0.22 2.11,0.22 4.2,0.56 6.24,1.04 v -0.02 c -2.05,-0.48 -4.13,-0.83 -6.26,-1.04 -1.45,-0.14 -2.94,-0.22 -4.45,-0.22"
         style="fill:#e6e6e5;fill-opacity:1;fill-rule:nonzero;stroke:none"
         id="path426" /><path
         d="m 3968.66,2264.49 v 0.02 c 4.82,1.11 9.44,2.93 13.87,5.35 -4.43,-2.43 -9.05,-4.25 -13.87,-5.37"
         style="fill:#f0f0f0;fill-opacity:1;fill-rule:nonzero;stroke:none"
         id="path428" /><path
         d="m 3921.61,2433.44 c -1.35,0.81 -2.69,2.01 -4.03,3.61 -3.3,3.98 -10.08,13.58 -19.31,27.18 9.23,-13.59 16.02,-23.2 19.33,-27.18 1.33,-1.6 2.67,-2.79 4.01,-3.61"
         style="fill:#f0f0f0;fill-opacity:1;fill-rule:nonzero;stroke:none"
         id="path430" /><path
         d="m 4070.5,2466.53 -8.38,3.65 0.01,0.01 8.37,-3.64 c 0,0 0,-0.01 0,-0.02"
         style="fill:#e6e6e5;fill-opacity:1;fill-rule:nonzero;stroke:none"
         id="path432" /><path
         d="m 4062.12,2470.18 -65.6,28.59 h 0.04 l 65.57,-28.58 -0.01,-0.01"
         style="fill:#f9b26d;fill-opacity:1;fill-rule:nonzero;stroke:none"
         id="path434" /><path
         d="m 3957.87,2263.25 c -3.55,0 -7.25,0.39 -11.09,1.13 -39.06,7.55 -92.31,51.49 -137.88,96.27 v 0 c -5.39,75.08 -36.38,132.48 -64.13,169.68 -17.01,172.34 -54.17,254.42 -54.17,254.42 v 0 c 0,0 97.16,-152.58 164.98,-256.18 l -9.87,-42.37 35.82,2.99 c 6.17,-9.29 11.8,-17.7 16.74,-24.96 9.23,-13.6 16.01,-23.2 19.31,-27.18 1.34,-1.6 2.68,-2.8 4.03,-3.61 1.57,-0.96 3.15,-1.41 4.73,-1.41 15.09,0 29.84,40.91 36.95,63.97 l 33.23,2.77 65.6,-28.59 8.38,-3.65 c -0.32,-2.08 -24.44,-161.82 -87.97,-196.67 -4.43,-2.42 -9.05,-4.24 -13.87,-5.35 -2.04,-0.48 -4.13,-0.82 -6.24,-1.04 -1.49,-0.15 -3,-0.22 -4.55,-0.22"
         style="fill:#304047;fill-opacity:1;fill-rule:nonzero;stroke:none"
         id="path436" /><path
         d="m 3808.9,2360.65 c -21.38,20.97 -41.11,42.11 -56.95,59.75 -1.37,40.04 -3.9,76.67 -7.18,109.93 27.75,-37.2 58.74,-94.6 64.13,-169.68"
         style="fill:#263136;fill-opacity:1;fill-rule:nonzero;stroke:none"
         id="path438" /><path
         d="m 3297.31,1073.33 0.49,99 c 0,3.32 -2.31,6.23 -5.57,6.96 l -72.48,16.42 c -6.49,1.41 -12.89,-2.71 -14.3,-9.21 l -0.27,-2.64 c 0.37,-32.03 2.22,-55.36 2.03,-95.58 -0.13,-24.77 -3.08,-99.491 -3.25,-133.698 -0.17,-34.211 33.6,-38.832 36.78,-24.852 13.99,62.75 33.19,109.92 51.32,129.94 3.44,3.71 5.32,8.6 5.25,13.66"
         style="fill:#1d2a30;fill-opacity:1;fill-rule:nonzero;stroke:none"
         id="path440" /><path
         d="m 3739.24,1984.82 31.97,-167.7 c 0,0 252.69,-408.99 252.55,-645.14 -0.16,-282.082 -735.96,-119.34 -735.96,-119.34 v 129.87 c 0,0 439.82,-37.79 479.45,6.32 48.11,53.55 -248.46,468.01 -248.46,468.01 l 220.45,327.98"
         style="fill:#1d2a30;fill-opacity:1;fill-rule:nonzero;stroke:none"
         id="path442" /><path
         d="m 3764.3,1008.09 c 28.28,1.87 55.58,5.02 81.22,9.78 h 0.06 c -25.65,-4.76 -52.99,-7.91 -81.28,-9.78 m 173.15,487.14 h -0.01 c -11.03,25.81 -22.51,51.16 -34.05,75.59 v 0 c 11.55,-24.43 23.03,-49.78 34.06,-75.59"
         style="fill:#f6f7f7;fill-opacity:1;fill-rule:nonzero;stroke:none"
         id="path444" /><path
         d="m 3903.39,1570.82 v 0 c -13.48,28.52 -27.04,55.79 -40.09,81.11 v 0.03 c 13.04,-25.33 26.61,-52.61 40.09,-81.14"
         style="fill:#e9e9e8;fill-opacity:1;fill-rule:nonzero;stroke:none"
         id="path446" /><path
         d="m 3863.3,1651.93 c -49.89,96.89 -92.09,165.19 -92.09,165.19 v 0.02 c 0.58,-0.95 42.54,-68.97 92.09,-165.18 v -0.03"
         style="fill:#f3f3f2;fill-opacity:1;fill-rule:nonzero;stroke:none"
         id="path448" /><path
         d="m 3845.58,1017.87 h -0.06 c 14.2,2.64 27.88,5.76 40.92,9.43 h 0.04 c -13.02,-3.67 -26.71,-6.8 -40.9,-9.43 m 101.29,33.2 0.01,0.04 c 27.51,14.96 49.03,34.29 62.22,59 v -0.09 c -13.19,-24.68 -34.72,-44.01 -62.23,-58.95 m 62.23,234.15 c -3.8,16.49 -8.23,33.27 -13.21,50.27 l 0.01,0.03 c 4.97,-16.97 9.41,-33.76 13.2,-50.22 v -0.08 m -41.21,134.02 -0.01,0.01 c -9.49,25.49 -19.75,50.95 -30.44,75.98 h 0.01 c 10.69,-25.03 20.95,-50.49 30.44,-75.99"
         style="fill:#e9e9e8;fill-opacity:1;fill-rule:nonzero;stroke:none"
         id="path450" /><path
         d="m 3886.48,1027.3 h -0.04 c 22.22,6.26 42.62,14.12 60.44,23.81 l -0.01,-0.04 c -17.82,-9.68 -38.17,-17.52 -60.39,-23.77 m 109.41,308.19 c -8.08,27.59 -17.58,55.7 -28.01,83.76 l 0.01,-0.01 c 10.44,-28.05 19.92,-56.12 28.01,-83.72 l -0.01,-0.03"
         style="fill:#f3f3f2;fill-opacity:1;fill-rule:nonzero;stroke:none"
         id="path452" /><path
         d="m 4009.1,1110.02 v 0.09 c 9.47,17.74 14.65,38.25 14.66,61.87 0.02,34.64 -5.4,73 -14.66,113.24 v 0.08 c 9.28,-40.28 14.71,-78.68 14.7,-113.35 -0.02,-23.65 -5.21,-44.17 -14.7,-61.93"
         style="fill:#f3f3f2;fill-opacity:1;fill-rule:nonzero;stroke:none"
         id="path454" /><path
         d="m 3658.32,1168.41 v 0.03 c 11.98,0.47 23.35,1.11 33.94,1.95 v -0.03 c -10.58,-0.84 -21.96,-1.48 -33.94,-1.95"
         style="fill:#e9e9e8;fill-opacity:1;fill-rule:nonzero;stroke:none"
         id="path456" /><path
         d="m 3692.26,1170.36 v 0.03 c 34.17,2.74 60.11,7.6 71.52,15.44 -11.37,-7.88 -37.32,-12.74 -71.52,-15.47"
         style="fill:#f3f3f2;fill-opacity:1;fill-rule:nonzero;stroke:none"
         id="path458" /><path
         d="m 3611.79,1167.5 v 0 c 5.3,0.02 10.54,0.07 15.71,0.15 10.61,0.15 20.92,0.41 30.82,0.79 v -0.03 c -9.9,-0.38 -20.2,-0.64 -30.83,-0.79 l 0.01,0.03 c -5.17,-0.08 -10.41,-0.13 -15.71,-0.15"
         style="fill:#f3f3f2;fill-opacity:1;fill-rule:nonzero;stroke:none"
         id="path460" /><path
         d="m 3324.08,1179.7 c -7.84,0.58 -14.6,1.11 -20.08,1.55 v -0.06 c -10.2,0.81 -16,1.3 -16.2,1.32 v 0.04 c 0,0 5.8,-0.5 16.2,-1.3 5.48,-0.44 12.24,-0.97 20.08,-1.55 v 0"
         style="fill:#e9e9e8;fill-opacity:1;fill-rule:nonzero;stroke:none"
         id="path462" /><path
         d="m 3695.2,1005.94 c -31.91,0 -64.18,1.24 -95.9,3.31 l 28.19,158.37 c 10.63,0.15 20.93,0.41 30.83,0.79 11.98,0.47 23.36,1.11 33.94,1.95 34.2,2.73 60.15,7.59 71.52,15.47 1.39,0.96 2.57,1.97 3.52,3.02 23.6,26.3 -36,139.8 -102.7,248.4 v 0.1 0 0 0 c -7.7,87.2 -48.8,183.9 -48.8,183.9 36.2,76.09 47.32,130.27 50.32,162.1 11.42,16.81 22.51,34.9 32.45,53.91 l 63.71,26.62 8.92,-46.73 c 0,0 0,0 0.01,-0.01 v -0.02 c 0,0 42.2,-68.3 92.09,-165.19 13.05,-25.32 26.61,-52.59 40.09,-81.11 11.54,-24.43 23.02,-49.78 34.05,-75.59 10.69,-25.03 20.95,-50.49 30.44,-75.98 10.43,-28.06 19.93,-56.17 28.01,-83.76 4.98,-17 9.41,-33.78 13.21,-50.27 9.26,-40.24 14.68,-78.6 14.66,-113.24 -0.01,-23.62 -5.19,-44.13 -14.66,-61.87 -13.19,-24.71 -34.71,-44.04 -62.22,-59 -17.82,-9.69 -38.22,-17.55 -60.44,-23.81 -13.04,-3.67 -26.72,-6.79 -40.92,-9.43 -25.64,-4.76 -52.94,-7.91 -81.22,-9.78 -22.56,-1.48 -45.72,-2.15 -69.1,-2.15 m -393.6,43.81 v 0 c -8.9,1.8 -13.8,2.9 -13.8,2.9 v 129.86 c 0.2,-0.02 6,-0.51 16.2,-1.32 l -2.4,-131.44"
         style="fill:#45555c;fill-opacity:1;fill-rule:nonzero;stroke:none"
         id="path464" /><path
         d="m 3602.43,1167.44 c -10.18,0 -20.54,0.08 -31.01,0.23 v 0.04 c 10.53,-0.15 20.94,-0.24 31.16,-0.24 3.09,0 6.15,0.01 9.21,0.03 v -0.04 c -3.1,-0.01 -6.23,-0.02 -9.36,-0.02"
         style="fill:#b8b8b6;fill-opacity:1;fill-rule:nonzero;stroke:none"
         id="path466" /><path
         d="m 3571.42,1167.67 c -4.8,0.07 -9.64,0.15 -14.47,0.25 v 0.03 c 4.84,-0.09 9.67,-0.18 14.47,-0.24 v -0.04"
         style="fill:#c0bfbd;fill-opacity:1;fill-rule:nonzero;stroke:none"
         id="path468" /><path
         d="m 3611.79,1167.46 v 0.04 c 5.3,0.02 10.54,0.07 15.71,0.15 l -0.01,-0.03 c -5.17,-0.08 -10.4,-0.13 -15.7,-0.16"
         style="fill:#c0bfbd;fill-opacity:1;fill-rule:nonzero;stroke:none"
         id="path470" /><path
         d="m 3324.08,1179.65 c -7.83,0.59 -14.6,1.11 -20.08,1.54 v 0.06 c 5.48,-0.44 12.24,-0.97 20.08,-1.55 v -0.05"
         style="fill:#b8b8b6;fill-opacity:1;fill-rule:nonzero;stroke:none"
         id="path472" /><path
         d="m 3599.3,1009.25 v 0 c -14.23,0.92 -28.34,2.02 -42.25,3.24 -0.08,36.1 -0.13,72.01 -0.13,107.54 0,16.07 0.01,32.03 0.03,47.89 4.83,-0.1 9.67,-0.18 14.47,-0.25 10.47,-0.15 20.83,-0.23 31.01,-0.23 3.13,0 6.26,0.01 9.36,0.02 5.3,0.03 10.53,0.08 15.7,0.16 l -28.19,-158.37 m -262.41,33.66 c -14.92,2.76 -26.91,5.13 -35.29,6.84 l 2.4,131.44 c 5.48,-0.43 12.25,-0.95 20.08,-1.54 4.08,-45.64 8.38,-91.38 12.81,-136.74"
         style="fill:#364248;fill-opacity:1;fill-rule:nonzero;stroke:none"
         id="path474" /><path
         d="m 3664.6,1437.35 c -36.23,58.88 -74.55,116.36 -102.81,157.72 0.81,26.21 1.74,49.61 2.79,69.68 0,0 53.69,48.14 101.54,118.6 -3,-31.83 -14.12,-86.01 -50.32,-162.1 0,0 41.1,-96.7 48.8,-183.9"
         style="fill:#364248;fill-opacity:1;fill-rule:nonzero;stroke:none"
         id="path476" /><path
         d="m 3550.06,201.48 h -98.99 c -3.34,-0.011 -6.22,-2.339 -6.94,-5.589 l -16.07,-72.571 c -1.37,-6.488 2.78,-12.871 9.27,-14.25 l 2.65,-0.261 c 32.03,0.531 55.35,2.492 95.57,2.492 24.78,0 99.51,-2.59 133.72,-2.59 34.2,0 38.66,33.789 24.66,36.91 -62.81,13.68 -110.08,32.641 -130.19,50.68 -3.72,3.418 -8.62,5.269 -13.68,5.179"
         style="fill:#1d2a30;fill-opacity:1;fill-rule:nonzero;stroke:none"
         id="path478" /><path
         d="m 3298.34,1979.46 c 0,0 -21.98,-82.13 0,-458.52 33.75,-577.889 140.87,-1347.26 140.87,-1347.26 l 124.53,22.621 c 0,0 -15.89,1150.849 0.84,1468.449 0,0 175.98,157.83 174.66,320.07 -1.31,162.23 -440.9,-5.36 -440.9,-5.36"
         style="fill:#1d2a30;fill-opacity:1;fill-rule:nonzero;stroke:none"
         id="path480" /><path
         d="m 3439.21,173.68 v 0 l 124.53,22.621 v 0 L 3439.21,173.68"
         style="fill:#45555c;fill-opacity:1;fill-rule:nonzero;stroke:none"
         id="path482" /><path
         d="m 3439.21,173.68 c 0,0 -82.42,591.949 -125.44,1127.38 -1.61,20.01 -3.16,39.88 -4.65,59.7 -4.1,54.46 -7.74,108.12 -10.78,160.18 -6.8,116.47 -9.39,204.79 -9.73,271.19 6.23,-7.21 9.73,-11.13 9.73,-11.13 l 82.47,51.26 176.1,-23.56 34.89,106.63 20.57,-65.64 13.42,-42.85 15.67,6.55 57.11,23.87 c -9.94,-19.01 -21.03,-37.1 -32.45,-53.91 -47.85,-70.46 -101.54,-118.6 -101.54,-118.6 -1.05,-20.07 -1.98,-43.47 -2.79,-69.68 v 0 c 0,-0.03 0,-0.01 0,-0.03 -0.24,-7.8 -0.47,-15.93 -0.69,-24.22 -3.08,-115.94 -4.18,-278.2 -4.18,-450.79 0,-429.94 6.82,-923.729 6.82,-923.729 L 3439.21,173.68"
         style="fill:#45555c;fill-opacity:1;fill-rule:nonzero;stroke:none"
         id="path484" /><path
         d="m 3733.7,2031.29 h -435.36 v -51.83 l 440.9,5.36 -5.54,46.47"
         style="fill:#1d2a30;fill-opacity:1;fill-rule:nonzero;stroke:none"
         id="path486" /><path
         d="m 3438.28,1962.62 h 15.5391 v 91.9883 H 3438.28 Z"
         style="fill:#1d2a30;fill-opacity:1;fill-rule:nonzero;stroke:none"
         id="path488" /><path
         d="m 3658.54,1962.62 h 15.5508 v 91.9883 H 3658.54 Z"
         style="fill:#1d2a30;fill-opacity:1;fill-rule:nonzero;stroke:none"
         id="path490" /><path
         d="m 3535.27,1982.34 h 80.5195 v 58.0195 H 3535.27 Z"
         style="fill:#ffffff;fill-opacity:1;fill-rule:nonzero;stroke:none"
         id="path492" /><path
         d="m 3690.6,2784.77 c 0,0 -275.12,12.96 -480.08,-38.78 0,0 90.49,-455.56 87.05,-714.7 h 436.13 c 0,0 28.35,486.04 -43.1,753.48"
         style="fill:#346951;fill-opacity:1;fill-rule:nonzero;stroke:none"
         id="path494" /><path
         d="m 3210.56,2745.98 v 0 c 6.47,1.63 13.02,3.2 19.61,4.71 l -19.61,-4.71"
         style="fill:#b4caec;fill-opacity:1;fill-rule:nonzero;stroke:none"
         id="path496" /><path
         d="m 3545.18,2475.23 c -77.35,161.6 -145.52,246.05 -178.88,281.71 -1.26,1.35 -2.47,2.63 -3.63,3.84 l 116.83,-56.28 6.15,8.71 31.07,-25.43 c 14.24,-52.09 23.04,-134.72 28.46,-212.55 m 30.44,35.51 c -20.38,98.89 -40.35,182.22 -40.35,182.22 l 6.96,34.21 24.63,-13.48 0.29,2.76 c 5.81,-64.52 7.86,-143.78 8.47,-205.71"
         style="fill:#b4caec;fill-opacity:1;fill-rule:nonzero;stroke:none"
         id="path498" /><path
         d="m 3371.16,2766.64 c 39.5,-35.89 136.28,-22.62 136.28,-22.62 0,0 60.41,16.54 47.72,35.42 -35.58,5.88 -52.81,22.49 -59.93,43.73 -4.12,12.38 -4.74,26.3 -3.6,40.64 0.51,7.53 1.65,15.16 2.98,22.69 l -119.64,88.6 c 15.68,-58.48 34.86,-166.06 -3.81,-208.46"
         style="fill:#f9a95e;fill-opacity:1;fill-rule:nonzero;stroke:none"
         id="path500" /><path
         d="m 3495.23,2823.17 c -28.87,4.02 -87.87,23.83 -92.62,95.62 l 89.02,-54.98 c -0.33,-4.09 -0.51,-8.14 -0.51,-12.14 0.01,-10.01 1.17,-19.65 4.11,-28.5"
         style="fill:#ca8849;fill-opacity:1;fill-rule:nonzero;stroke:none"
         id="path502" /><path
         d="m 3335.08,3161.14 c 0,0 -33.38,-107.98 18.89,-159.28 52.28,-51.3 83.14,154.4 83.14,154.4 l -102.03,4.88"
         style="fill:#1d2a30;fill-opacity:1;fill-rule:nonzero;stroke:none"
         id="path504" /><path
         d="m 3511.07,2888.48 c -34.6,-36.63 -82.61,-40.37 -120.99,-21.58 -24.68,12.05 -45.35,33.51 -55.96,61.49 -1.43,3.65 -2.63,7.49 -3.71,11.4 -18.74,71.85 -10.19,191.35 67.85,224.91 55.49,24.32 120.32,-0.95 144.63,-56.54 7.02,-15.76 10.06,-33.01 9.14,-50.29 -3.07,-80.26 -1.1,-127.6 -40.96,-169.39"
         style="fill:#f9a95e;fill-opacity:1;fill-rule:nonzero;stroke:none"
         id="path506" /><path
         d="m 3430.61,3032.96 c 0.59,-6.48 -3.17,-11.89 -7.51,-11.97 -4.35,-0.08 -7.83,5.2 -8,11.71 -0.17,6.51 3.27,11.89 7.52,11.96 4.23,0.08 7.8,-5.09 7.99,-11.7"
         style="fill:#1d2a30;fill-opacity:1;fill-rule:nonzero;stroke:none"
         id="path508" /><path
         d="m 3356.7,3031.46 c 0.58,-6.46 -3.28,-11.88 -7.52,-11.96 -4.24,-0.07 -7.82,5.2 -7.99,11.71 -0.17,6.5 3.27,11.89 7.51,11.97 4.24,0.07 7.85,-5.51 8,-11.72"
         style="fill:#1d2a30;fill-opacity:1;fill-rule:nonzero;stroke:none"
         id="path510" /><path
         d="m 3380.24,3028.73 c -7.37,-20.16 -17.51,-39.19 -30.1,-56.57 9.23,-6.32 20.77,-8.23 31.54,-5.23 l -1.44,61.8"
         style="fill:#ec782f;fill-opacity:1;fill-rule:nonzero;stroke:none"
         id="path512" /><path
         d="m 3453.06,3057.36 c -1.42,-0.23 -2.85,0.31 -3.76,1.41 -5.86,7.81 -15.07,12.4 -24.83,12.37 -2.1,-0.2 -3.96,1.34 -4.15,3.45 -0.19,2.09 1.35,3.95 3.45,4.14 l 0.01,0.01 c 12.35,0.35 24.09,-5.31 31.51,-15.17 1.36,-1.62 1.15,-4.03 -0.47,-5.38 l -0.07,-0.06 -1.69,-0.77"
         style="fill:#1d2a30;fill-opacity:1;fill-rule:nonzero;stroke:none"
         id="path514" /><path
         d="m 3324.42,3056.31 -2.26,-0.2 c -1.93,0.85 -2.79,3.1 -1.94,5.03 l 0.03,0.08 c 4.93,11.37 15.08,19.62 27.21,22.12 2.09,0.31 4.02,-1.13 4.33,-3.21 v -0.01 c 0.25,-2.08 -1.17,-3.99 -3.24,-4.34 -9.51,-2.25 -17.4,-8.88 -21.27,-17.86 -0.67,-0.93 -1.72,-1.52 -2.86,-1.61"
         style="fill:#1d2a30;fill-opacity:1;fill-rule:nonzero;stroke:none"
         id="path516" /><path
         d="m 3491.09,3156.85 -5.29,-35.27 c 11.44,-6.5 18.08,-19.79 12.34,-33.58 -12.24,-29.45 3.38,-76.09 25.71,-95.12 0,0 1.06,12.88 11.86,9.52 10.79,-3.36 5.95,-70.42 -16.16,-101.87 0,0 38.38,34.4 58.44,104.4 18.56,64.74 16.66,112.7 3.95,138.29 l -90.85,13.63"
         style="fill:#1d2a30;fill-opacity:1;fill-rule:nonzero;stroke:none"
         id="path518" /><path
         d="m 3588.43,2992.74 c -8.54,-18.35 -24.01,-32.56 -43.01,-39.52 -25.22,-9.04 -39.75,13.1 -34.4,37.94 4.96,22.02 23.92,54 50.07,52.08 26.16,-1.93 37.54,-27.85 27.34,-50.5"
         style="fill:#f9a95e;fill-opacity:1;fill-rule:nonzero;stroke:none"
         id="path520" /><path
         d="m 3375.74,2947.29 c 4.12,-9.97 7.86,-28.5 7.86,-28.5 1.75,0.03 3.48,0.06 5.22,0.19 23.59,1.09 34.17,9.39 38.75,18.26 2.49,4.85 3.13,9.95 3.1,14.07 0.02,4.78 -1.06,8.18 -1.06,8.18 -12.16,-8.04 -34.07,-10.75 -45.84,-11.7 -4.92,-0.45 -8.03,-0.5 -8.03,-0.5"
         style="fill:#1d2a30;fill-opacity:1;fill-rule:nonzero;stroke:none"
         id="path522" /><path
         d="m 3383.77,2947.79 2.54,-8.35 c 22.22,1.08 37.71,4.82 44.36,11.87 0.02,4.78 -1.06,8.18 -1.06,8.18 -12.16,-8.04 -34.07,-10.75 -45.84,-11.7"
         style="fill:#ffffff;fill-opacity:1;fill-rule:nonzero;stroke:none"
         id="path524" /><path
         d="m 3388.82,2918.98 c 23.59,1.09 34.17,9.39 38.75,18.26 -8.02,-0.68 -17.62,-2.4 -25.95,-6.4 -6.39,-3.04 -10.28,-7.45 -12.8,-11.86"
         style="fill:#f03e4c;fill-opacity:1;fill-rule:nonzero;stroke:none"
         id="path526" /><path
         d="m 3485.8,3121.58 c 0,0 -84.34,-36.84 -136.83,5.35 -52.49,42.2 0,107.88 0,107.88 0,0 18.72,-18.2 46.42,-18.2 27.69,0 90.24,21.1 143.36,-1.32 53.12,-22.42 77.63,-95 33.07,-131.9 l -86.02,38.19"
         style="fill:#1d2a30;fill-opacity:1;fill-rule:nonzero;stroke:none"
         id="path528" /><path
         d="m 3546.85,2749.88 -11.58,-56.92 c 0,0 66.26,-276.42 80.52,-419.8 l -24.15,-24.19 -38,24.19 c 0,0 -3.4,291.96 -36.92,414.62 l -60.09,49.2 47.3,15.31 42.92,-2.41"
         style="fill:#f03e4c;fill-opacity:1;fill-rule:nonzero;stroke:none"
         id="path530" /><path
         d="m 3384.69,2820.8 114.92,-51.82 6.74,41.54 42.26,-14.86 c 15.16,-5.34 24.69,-20.39 23.02,-36.37 l -4.77,-45.6 -58.31,31.91 -29.05,-41.1 -138.05,66.5 43.24,49.8"
         style="fill:#f03e4c;fill-opacity:1;fill-rule:nonzero;stroke:none"
         id="path532" /><path
         d="m 3479.5,2704.5 -116.83,56.28 c -8.07,8.42 -13.67,13.54 -16.32,15.87 l 38.34,44.15 114.92,-51.82 6.74,41.54 42.26,-14.86 c 3.09,-1.09 5.95,-2.58 8.52,-4.4 l -0.22,0.01 c 0.01,0 0.01,-0.01 0.01,-0.02 h -0.02 v 0 0 c 4.31,-20.07 7.65,-45.97 10.25,-74.8 l -0.29,-2.76 -24.63,13.48 -33.68,18.43 -22.9,-32.39 -6.15,-8.71"
         style="fill:#c7d9f2;fill-opacity:1;fill-rule:nonzero;stroke:none"
         id="path534" /><path
         d="m 3344.58,2778.15 c 0,0 108.45,-88.26 230.95,-369.4 0,0 4.45,274.76 -18.62,382.52 l 133.65,-6.49 c 0,0 97.83,-216.08 48.69,-682.89 l 33.94,-233.41 -147.4,-61.64 -33.97,108.53 -34.91,-106.67 -284.16,38.02 15.05,294.73 c 0,0 -68.21,487.09 -77.24,604.53 l 134.02,32.17"
         style="fill:#1d2a30;fill-opacity:1;fill-rule:nonzero;stroke:none"
         id="path536" /><path
         d="m 3747.1,2048.17 h -0.04 l -7.81,53.72 c 0.78,7.35 1.51,14.64 2.22,21.87 h 0.04 c -0.7,-7.23 -1.44,-14.56 -2.21,-21.91 l 7.8,-53.68"
         style="fill:#f5f6f6;fill-opacity:1;fill-rule:nonzero;stroke:none"
         id="path538" /><path
         d="m 3741.51,2123.76 h -0.04 c 0.08,0.84 0.16,1.65 0.24,2.49 l 0.08,0.35 c -0.1,-0.95 -0.19,-1.89 -0.28,-2.84"
         style="fill:#e6e6e5;fill-opacity:1;fill-rule:nonzero;stroke:none"
         id="path540" /><path
         d="m 3741.71,2126.25 c 10.88,113.13 13.06,211 10.22,294.13 0,0 0.02,-0.02 0.02,-0.03 2.84,-83.04 0.68,-180.76 -10.16,-293.75 l -0.08,-0.35"
         style="fill:#f0f0f0;fill-opacity:1;fill-rule:nonzero;stroke:none"
         id="path542" /><path
         d="m 3758.06,1972.52 -11,75.65 h 0.04 l 10.98,-75.65 h -0.02"
         style="fill:#e6e6e5;fill-opacity:1;fill-rule:nonzero;stroke:none"
         id="path544" /><path
         d="m 3762.3,1863.89 -0.01,0.03 10.9,4.56 -15.13,104.04 h 0.02 l 15.12,-104.07 -10.9,-4.56"
         style="fill:#f0f0f0;fill-opacity:1;fill-rule:nonzero;stroke:none"
         id="path546" /><path
         d="m 3690.6,2784.77 v 0 -0.02"
         style="fill:#e6e6e5;fill-opacity:1;fill-rule:nonzero;stroke:none"
         id="path548" /><path
         d="m 3751.95,2420.35 c 0,0.01 -0.02,0.03 -0.02,0.03 v 0.05 c 0,-0.01 0.01,-0.02 0.02,-0.03 0,-0.02 0,-0.03 0,-0.05"
         style="fill:#304047;fill-opacity:1;fill-rule:nonzero;stroke:none"
         id="path550" /><path
         d="m 3744.77,2530.33 c -0.01,0.01 -0.02,0.03 -0.03,0.04 -16.57,167.84 -52.26,250.09 -54.1,254.25 -0.02,0.04 -0.03,0.1 -0.04,0.15 v -0.02 c 0,0 37.16,-82.08 54.17,-254.42"
         style="fill:#44545a;fill-opacity:1;fill-rule:nonzero;stroke:none"
         id="path552" /><path
         d="m 3751.95,2420.4 c -0.01,0.01 -0.02,0.02 -0.02,0.03 -1.37,40.05 -3.9,76.67 -7.19,109.94 0.01,-0.01 0.02,-0.03 0.03,-0.04 3.28,-33.26 5.81,-69.89 7.18,-109.93"
         style="fill:#3a454c;fill-opacity:1;fill-rule:nonzero;stroke:none"
         id="path554" /><path
         d="m 3762.28,1863.88 v 0.03 l 0.01,0.01 0.01,-0.03 -0.02,-0.01"
         style="fill:#304047;fill-opacity:1;fill-rule:nonzero;stroke:none"
         id="path556" /><path
         d="m 3698.57,1837.26 c 0.01,0.01 0.01,0.01 0.01,0.02 l 63.7,26.63 v -0.03 l -63.71,-26.62"
         style="fill:#57676e;fill-opacity:1;fill-rule:nonzero;stroke:none"
         id="path558" /><path
         d="m 3283.03,2048.17 h -0.01 l 3.59,70.1 -3.58,-70.1"
         style="fill:#f5f6f6;fill-opacity:1;fill-rule:nonzero;stroke:none"
         id="path560" /><path
         d="m 3280.3,1994.61 c -0.01,0.02 -0.02,0.03 -0.02,0.04 l 2.74,53.52 h 0.01 l -2.73,-53.56"
         style="fill:#e6e6e5;fill-opacity:1;fill-rule:nonzero;stroke:none"
         id="path562" /><path
         d="m 3289.47,2764.92 7.23,1.74 v 0 l -7.23,-1.74"
         style="fill:#ffffff;fill-opacity:1;fill-rule:nonzero;stroke:none"
         id="path564" /><path
         d="m 3296.7,2766.66 v 0 l 38.6,9.29 8.13,1.93 -8.13,-1.93 c 0,-0.01 -0.01,-0.02 -0.01,-0.03 l -38.59,-9.26"
         style="fill:#e6e6e5;fill-opacity:1;fill-rule:nonzero;stroke:none"
         id="path566" /><path
         d="m 3641.46,1813.39 57.12,23.89 c 0,-0.01 0,-0.01 -0.01,-0.02 l -57.11,-23.87 m -29.09,36.3 -20.57,65.64 0.02,0.04 20.55,-65.68"
         style="fill:#57676e;fill-opacity:1;fill-rule:nonzero;stroke:none"
         id="path568" /><path
         d="m 3690.64,2784.62 c -0.03,0.06 -0.05,0.11 -0.07,0.13 h 0.03 c 0,0.02 0,0.02 0,0.02 v 0 c 0.01,-0.05 0.02,-0.11 0.04,-0.15"
         style="fill:#f03e4c;fill-opacity:1;fill-rule:nonzero;stroke:none"
         id="path570" /><path
         d="m 3556.92,2791.24 c -0.01,0.01 -0.02,0.01 -0.02,0.01 v 0 h 0.02 c 0,-0.01 0,0 0,-0.01"
         style="fill:#cddef3;fill-opacity:1;fill-rule:nonzero;stroke:none"
         id="path572" /><path
         d="m 3625.8,1806.85 -13.43,42.84 -20.55,65.68 -0.02,-0.04 v 0.02 l -34.9,-106.6 -109.8,14.7 c -26.67,88.64 -112.13,142.88 -165.54,169.04 -0.42,0.7 -0.84,1.41 -1.26,2.12 l 2.73,53.56 3.58,70.1 1.19,23.18 c 0,0 -12.2,87.7 -27.1,197.6 36.7,86.3 8.1,196 8.1,196 l -0.03,-0.02 c 0.01,0.03 0.02,0.04 0.02,0.04 v 0 0 c 0,0 -8.25,160.66 -58.19,210.88 v 0 l 78.87,18.97 7.23,1.74 38.59,9.26 c -26.79,-51.5 -18.39,-135.97 -18.39,-135.97 l 90.3,17.8 -36,-55.6 200.6,-231.3 v -43.5 c 51.8,73.2 84,283.6 84,283.6 l -31,54.7 h 41.5 v 0 c -45.01,90.03 -108.04,124.85 -109.38,125.59 0,0.01 0,0 0,0.01 l 133.65,-6.5 c 0.02,-0.02 0.04,-0.07 0.07,-0.13 1.84,-4.16 37.53,-86.41 54.1,-254.25 3.29,-33.27 5.82,-69.89 7.19,-109.94 v 0 -0.05 c 2.84,-83.13 0.66,-181 -10.22,-294.13 -0.08,-0.84 -0.16,-1.65 -0.24,-2.49 -0.71,-7.23 -1.44,-14.52 -2.22,-21.87 l 7.81,-53.72 11,-75.65 15.13,-104.04 -10.9,-4.56 -0.01,-0.01 -63.7,-26.63 -57.12,-23.89 -15.66,-6.54"
         style="fill:#304047;fill-opacity:1;fill-rule:nonzero;stroke:none"
         id="path574" /><path
         d="m 3335.29,2775.92 c 0,0.01 0.01,0.02 0.01,0.03 l 8.13,1.93 -8.14,-1.96 m 11.05,0.72 c -1.11,0.98 -1.7,1.47 -1.75,1.51 h 0.01 c 0,0 0.6,-0.49 1.75,-1.5 l -0.01,-0.01"
         style="fill:#ececeb;fill-opacity:1;fill-rule:nonzero;stroke:none"
         id="path576" /><path
         d="m 3575.64,2510.67 c -0.01,0.02 -0.01,0.05 -0.02,0.07 -0.61,61.93 -2.66,141.19 -8.47,205.71 v 0.02 c 5.81,-64.55 7.86,-143.87 8.49,-205.8 m -209.34,246.27 c -1.26,1.35 -2.47,2.63 -3.63,3.84 v 0 c 1.16,-1.21 2.37,-2.49 3.63,-3.84"
         style="fill:#cbdbf2;fill-opacity:1;fill-rule:nonzero;stroke:none"
         id="path578" /><path
         d="m 3575.53,2408.75 c -0.01,0.01 -0.02,0.04 -0.03,0.06 0.02,1.26 0.35,22.69 0.35,55.32 0,13.77 -0.06,29.53 -0.23,46.61 0.01,-0.02 0.01,-0.05 0.02,-0.07 0.59,-58.8 -0.11,-101.92 -0.11,-101.92"
         style="fill:#7498d6;fill-opacity:1;fill-rule:nonzero;stroke:none"
         id="path580" /><path
         d="m 3567.15,2716.45 c -2.6,28.83 -5.94,54.73 -10.25,74.8 0,0 0.01,0 0.02,-0.01 4.3,-20.08 7.64,-45.95 10.23,-74.77 v -0.02 m -204.48,44.33 v 0 c -8.07,8.42 -13.67,13.53 -16.33,15.86 l 0.01,0.01 c 2.65,-2.33 8.25,-7.45 16.32,-15.87"
         style="fill:#d7e5f6;fill-opacity:1;fill-rule:nonzero;stroke:none"
         id="path582" /><path
         d="m 3571.8,2327.35 v 43.5 l -200.6,231.3 36,55.6 -90.3,-17.8 c 0,0 -8.4,84.47 18.39,135.97 l 8.14,1.96 1.16,0.27 c 0.05,-0.04 0.64,-0.53 1.75,-1.51 v 0 c 2.66,-2.33 8.26,-7.44 16.33,-15.86 v 0 c 1.16,-1.21 2.37,-2.49 3.63,-3.84 37.65,-40.26 119.66,-142.72 209.2,-348.19 0,0 0,0.02 0,0.06 0.01,-0.02 0.02,-0.05 0.03,-0.06 0,0 0.7,43.12 0.11,101.92 -0.63,61.93 -2.68,141.25 -8.49,205.8 v 0 c -2.59,28.82 -5.93,54.69 -10.23,74.77 1.34,-0.74 64.37,-35.56 109.38,-125.59 h -41.5 l 31,-54.7 c 0,0 -32.2,-210.4 -84,-283.6"
         style="fill:#57676e;fill-opacity:1;fill-rule:nonzero;stroke:none"
         id="path584" /><path
         d="m 3242.02,2479.61 c -0.1,0.77 -0.21,1.55 -0.31,2.32 v 0.01 c 0.11,-0.78 0.21,-1.55 0.31,-2.33"
         style="fill:#b6b6b4;fill-opacity:1;fill-rule:nonzero;stroke:none"
         id="path586" /><path
         d="m 3260.7,2339.05 v 0 c -6.04,44.67 -12.44,92.97 -18.68,140.56 -0.1,0.78 -0.2,1.55 -0.31,2.33 15.24,30.74 26.5,52.04 27.06,53.09 l 0.03,0.02 c 0,0 28.6,-109.7 -8.1,-196"
         style="fill:#263136;fill-opacity:1;fill-rule:nonzero;stroke:none"
         id="path588" /><path
         d="m 3447.1,1823.45 -66.26,8.85 c -0.76,1.16 -48.07,73.84 -99.28,160.19 53.41,-26.16 138.87,-80.4 165.54,-169.04"
         style="fill:#263136;fill-opacity:1;fill-rule:nonzero;stroke:none"
         id="path590" /><path
         d="m 3210.6,2745.95 c 0,0 -213.46,-318.91 -192.36,-496.98 21.1,-178.07 280.1,-467.97 280.1,-467.97 l 82.51,51.29 c 0,0 -207,317.73 -225.46,416.68 -9.95,53.29 113.4,286.1 113.4,286.1 0,0 -8.25,160.66 -58.19,210.88"
         style="fill:#1d2a30;fill-opacity:1;fill-rule:nonzero;stroke:none"
         id="path592" /><path
         d="m 3298.34,1781 c 0,0 -117.8,131.85 -200.98,272.33 -14.8,25 -28.51,50.28 -40.27,75.14 -20.12,42.56 -34.51,83.89 -38.85,120.5 -0.99,8.34 -1.46,17 -1.46,25.92 -0.09,181.34 193.82,471.06 193.82,471.06 49.94,-50.22 58.19,-210.88 58.19,-210.88 0,0 -0.01,-0.01 -0.02,-0.04 -0.56,-1.05 -11.82,-22.35 -27.06,-53.09 v -0.01 c -33.71,-68.02 -86.92,-182.32 -86.89,-226.02 0,-2.57 0.18,-4.89 0.57,-6.94 18.46,-98.95 225.46,-416.68 225.46,-416.68 l -0.04,-0.03 -82.47,-51.26"
         style="fill:#304047;fill-opacity:1;fill-rule:nonzero;stroke:none"
         id="path594" /><path
         d="m 3880.55,2524 19.23,262.21 170.72,-11.8 20.16,83.96 41.37,-17.21 -86.43,-306.11 -165.05,-11.05"
         style="fill:#f03e4c;fill-opacity:1;fill-rule:nonzero;stroke:none"
         id="path596" /><path
         d="m 3892.51,2687.03 7.27,99.18 170.72,-11.8 20.16,83.96 41.37,-17.21 -51.59,-83.31 h -171.43 l -16.5,-70.82"
         style="fill:#c7d9f2;fill-opacity:1;fill-rule:nonzero;stroke:none"
         id="path598" /><path
         d="m 3845.71,2486.2 63.3,271.65 h 171.43 l 60.66,97.95 -50.11,-290.64 -60.66,-63.57 -184.62,-15.39"
         style="fill:#f03e4c;fill-opacity:1;fill-rule:nonzero;stroke:none"
         id="path600" /><path
         d="m 4030.33,2501.59 50.11,256.26 60.66,97.95 -29.88,-173.33 -20.23,-117.31 -60.66,-63.57"
         style="fill:#f03e4c;fill-opacity:1;fill-rule:nonzero;stroke:none"
         id="path602" /><path
         d="m 4107.43,2660.52 c 0,0 -28.97,-9.63 -32.92,-26.77 -3.96,-17.14 -10.55,-122.64 -10.55,-122.64 0,0 44.83,10.55 51.43,34.29 6.59,23.73 -7.96,115.12 -7.96,115.12"
         style="fill:#f9a95e;fill-opacity:1;fill-rule:nonzero;stroke:none"
         id="path604" /></g></g></svg>
